<svg xmlns="http://www.w3.org/2000/svg" width="70" height="70" viewBox="0 0 70 70"><g><g><path fill="#e30712" d="M69.998 1.367v67.266c0 .755-.612 1.367-1.367 1.367h-41.27a6.888 6.888 0 0 1-4.529-1.697l-1.625-1.418A4.108 4.108 0 0 1 17.227 70H4.1A4.106 4.106 0 0 1 0 65.898V43.614a4.106 4.106 0 0 1 4.101-4.102h13.125a4.1 4.1 0 0 1 3.386 1.79l5.81-5.81-6.716-25.066a1.367 1.367 0 0 1 .966-1.675l12.96-3.472v-3.91c0-.755.612-1.367 1.367-1.367L68.63 0a1.368 1.368 0 0 1 1.367 1.367zM18.593 65.9V43.614c0-.754-.613-1.367-1.367-1.367h-5.195v15.75a1.367 1.367 0 0 1-2.735 0v-15.75H4.101c-.754 0-1.367.613-1.367 1.367v22.285c0 .753.613 1.367 1.367 1.367h13.125c.754 0 1.367-.614 1.367-1.367zm10.529-30.896c.105.141.184.304.229.48l1.414 5.532h2.744l-5.33-19.734a1.367 1.367 0 0 1 .967-1.677 3.685 3.685 0 0 0 2.603-4.508 1.367 1.367 0 0 1 .966-1.675l.917-.245V8.109L22.7 11.04zm4.51-15.558a6.404 6.404 0 0 1-2.494 2.303l2.494 9.234zm19.641 47.82a1.916 1.916 0 0 0 1.914-1.913 1.916 1.916 0 0 0-1.914-1.914H42.81a1.367 1.367 0 0 1 0-2.734h15.127a1.916 1.916 0 0 0 1.914-1.914 1.916 1.916 0 0 0-1.914-1.914H42.81a1.367 1.367 0 0 1 0-2.735h18.052a1.916 1.916 0 0 0 1.914-1.914 1.916 1.916 0 0 0-1.914-1.914H42.81a1.367 1.367 0 0 1 0-2.734h13.773a1.916 1.916 0 0 0 1.914-1.914 1.916 1.916 0 0 0-1.914-1.914l-26.88-.002c-.624 0-1.17-.423-1.324-1.029l-1.083-4.235-5.969 5.969v18.909l3.302 2.88a4.155 4.155 0 0 0 2.73 1.023zm13.99-64.53H36.367v38.281h2.67V13.8c0-.755.613-1.367 1.368-1.367a3.685 3.685 0 0 0 3.68-3.682c0-.755.613-1.367 1.368-1.367h12.725c.755 0 1.367.612 1.367 1.367a3.685 3.685 0 0 0 3.682 3.682c.754 0 1.367.612 1.367 1.367v5.47a1.367 1.367 0 0 1-2.735 0v-4.25a6.436 6.436 0 0 1-4.901-4.901H46.673a6.436 6.436 0 0 1-4.902 4.901v25.996h7.473A6.552 6.552 0 0 1 45.272 35a6.55 6.55 0 0 1 6.543-6.543A6.55 6.55 0 0 1 58.358 35a6.552 6.552 0 0 1-3.973 6.016h2.198a4.653 4.653 0 0 1 4.648 4.649 4.62 4.62 0 0 1-.414 1.914h.045c.342 0 .675.038.996.108V32.13a1.367 1.367 0 0 1 2.735 0v17.328c.576.773.917 1.732.917 2.769a4.655 4.655 0 0 1-3.418 4.482c.315.626.493 1.333.493 2.08a4.654 4.654 0 0 1-4.648 4.648h-.43a4.62 4.62 0 0 1 0 3.829h9.757zM55.624 35c0-2.1-1.708-3.809-3.808-3.809a3.813 3.813 0 0 0-3.809 3.81c0 2.1 1.709 3.808 3.809 3.808S55.624 37.1 55.624 35z"/><path fill="none" stroke="#fff" stroke-miterlimit="50" stroke-width=".5" d="M69.998 1.367v67.266c0 .755-.612 1.367-1.367 1.367h-41.27a6.888 6.888 0 0 1-4.529-1.697l-1.625-1.418A4.108 4.108 0 0 1 17.227 70H4.1A4.106 4.106 0 0 1 0 65.898V43.614a4.106 4.106 0 0 1 4.101-4.102h13.125a4.1 4.1 0 0 1 3.386 1.79l5.81-5.81-6.716-25.066a1.367 1.367 0 0 1 .966-1.675l12.96-3.472v-3.91c0-.755.612-1.367 1.367-1.367L68.63 0a1.368 1.368 0 0 1 1.367 1.367zM18.593 65.9V43.614c0-.754-.613-1.367-1.367-1.367h-5.195v15.75a1.367 1.367 0 0 1-2.735 0v-15.75H4.101c-.754 0-1.367.613-1.367 1.367v22.285c0 .753.613 1.367 1.367 1.367h13.125c.754 0 1.367-.614 1.367-1.367zm10.529-30.896c.105.141.184.304.229.48l1.414 5.532h2.744l-5.33-19.734a1.367 1.367 0 0 1 .967-1.677 3.685 3.685 0 0 0 2.603-4.508 1.367 1.367 0 0 1 .966-1.675l.917-.245V8.109L22.7 11.04zm4.51-15.558a6.404 6.404 0 0 1-2.494 2.303l2.494 9.234zm19.641 47.82a1.916 1.916 0 0 0 1.914-1.913 1.916 1.916 0 0 0-1.914-1.914H42.81a1.367 1.367 0 0 1 0-2.734h15.127a1.916 1.916 0 0 0 1.914-1.914 1.916 1.916 0 0 0-1.914-1.914H42.81a1.367 1.367 0 0 1 0-2.735h18.052a1.916 1.916 0 0 0 1.914-1.914 1.916 1.916 0 0 0-1.914-1.914H42.81a1.367 1.367 0 0 1 0-2.734h13.773a1.916 1.916 0 0 0 1.914-1.914 1.916 1.916 0 0 0-1.914-1.914l-26.88-.002c-.624 0-1.17-.423-1.324-1.029l-1.083-4.235-5.969 5.969v18.909l3.302 2.88a4.155 4.155 0 0 0 2.73 1.023zm13.99-64.53H36.367v38.281h2.67V13.8c0-.755.613-1.367 1.368-1.367a3.685 3.685 0 0 0 3.68-3.682c0-.755.613-1.367 1.368-1.367h12.725c.755 0 1.367.612 1.367 1.367a3.685 3.685 0 0 0 3.682 3.682c.754 0 1.367.612 1.367 1.367v5.47a1.367 1.367 0 0 1-2.735 0v-4.25a6.436 6.436 0 0 1-4.901-4.901H46.673a6.436 6.436 0 0 1-4.902 4.901v25.996h7.473A6.552 6.552 0 0 1 45.272 35a6.55 6.55 0 0 1 6.543-6.543A6.55 6.55 0 0 1 58.358 35a6.552 6.552 0 0 1-3.973 6.016h2.198a4.653 4.653 0 0 1 4.648 4.649 4.62 4.62 0 0 1-.414 1.914h.045c.342 0 .675.038.996.108V32.13a1.367 1.367 0 0 1 2.735 0v17.328c.576.773.917 1.732.917 2.769a4.655 4.655 0 0 1-3.418 4.482c.315.626.493 1.333.493 2.08a4.654 4.654 0 0 1-4.648 4.648h-.43a4.62 4.62 0 0 1 0 3.829h9.757zM55.624 35c0-2.1-1.708-3.809-3.808-3.809a3.813 3.813 0 0 0-3.809 3.81c0 2.1 1.709 3.808 3.809 3.808S55.624 37.1 55.624 35z"/></g></g></svg>