<svg xmlns="http://www.w3.org/2000/svg" width="80" height="68" viewBox="0 0 80 68"><g><g><path fill="#ed1d24" d="M77.896 61.62c1.16 0 2.104.944 2.104 2.105v2.069c0 1.16-.944 2.104-2.104 2.104H2.104A2.107 2.107 0 0 1 0 65.794V18.276a1.14 1.14 0 0 1 2.28 0v47.341h75.44v-1.716H5.835a2.107 2.107 0 0 1-2.104-2.104V3.151H2.28v7.92a1.14 1.14 0 0 1-2.281 0V2.973C0 1.814.944.87 2.104.87h1.804c1.16 0 2.105.944 2.105 2.104v58.647h4.697V43.127a2.551 2.551 0 0 1 2.548-2.548h9.024a2.551 2.551 0 0 1 2.548 2.548v18.493h7.35V33.747a2.551 2.551 0 0 1 2.548-2.548h9.024a2.551 2.551 0 0 1 2.548 2.548V61.62h7.2a13.894 13.894 0 0 1-2.13-1.746 13.658 13.658 0 0 1-4.027-9.721c0-3.672 1.43-7.125 4.026-9.722a13.728 13.728 0 0 1 2.28-1.837V23.4a2.551 2.551 0 0 1 2.548-2.548h9.024A2.551 2.551 0 0 1 67.77 23.4v2.83a1.14 1.14 0 1 1-2.28 0V23.4a.268.268 0 0 0-.268-.267h-9.023a.268.268 0 0 0-.268.267v14.008a13.712 13.712 0 0 1 9.559-.282v-3.59a1.14 1.14 0 0 1 2.28 0v4.603a13.704 13.704 0 0 1 3.043 2.293 13.657 13.657 0 0 1 4.027 9.721c0 3.672-1.43 7.125-4.027 9.721a13.878 13.878 0 0 1-2.132 1.747zM22.549 43.129a.268.268 0 0 0-.267-.267h-9.024a.268.268 0 0 0-.267.267v18.493h9.558zM44.02 61.62V33.748a.268.268 0 0 0-.268-.267h-9.023a.268.268 0 0 0-.268.267V61.62zm22.15-1.183a11.475 11.475 0 0 0 3.03-2.176c4.471-4.47 4.471-11.746 0-16.217a11.413 11.413 0 0 0-3.176-2.242l-.167-.079c-.14-.063-.281-.125-.423-.183l-.071-.028a11.512 11.512 0 0 0-9.554.463l-.084.043a11.428 11.428 0 0 0-2.742 2.026 11.392 11.392 0 0 0-3.359 8.109c0 3.063 1.193 5.943 3.359 8.109.714.714 1.508 1.32 2.359 1.815l.019.01a11.448 11.448 0 0 0 3.83 1.374l.04.007a11.258 11.258 0 0 0 1.365.14c.165.007.33.012.496.012.165 0 .33-.005.494-.012l.127-.005a11.635 11.635 0 0 0 .664-.056l.064-.008a11.534 11.534 0 0 0 3.688-1.085c.014-.006.028-.01.042-.017z"/></g></g></svg>