<svg xmlns="http://www.w3.org/2000/svg" width="78" height="80" viewBox="0 0 78 80"><g><g><path fill="#fff" d="M75.185 46.858a2.565 2.565 0 0 1 2.562 2.563v12.167a2.565 2.565 0 0 1-2.562 2.562h-1.197v10.783A5.072 5.072 0 0 1 68.92 80H5.317A5.072 5.072 0 0 1 .25 74.933V36.075a5.072 5.072 0 0 1 2.955-4.604v-1.002a3.867 3.867 0 0 1 3.863-3.862h2.92l1.714-17.355a3.697 3.697 0 0 1 4.037-3.311l17.668 1.745a1.14 1.14 0 1 1-.224 2.269L15.515 8.21a1.413 1.413 0 0 0-1.544 1.266l-2.127 21.532h1.454l1.366-13.838a2.665 2.665 0 0 1 1.719-2.248 6.371 6.371 0 0 0 3.109-2.526 2.668 2.668 0 0 1 2.526-1.222l8.743.864a1.14 1.14 0 1 1-.224 2.268l-8.743-.863a.401.401 0 0 0-.379.177 8.667 8.667 0 0 1-4.228 3.436.404.404 0 0 0-.254.338l-1.345 13.614h5.575L41.194 1.614A3.668 3.668 0 0 1 43.558.066a3.665 3.665 0 0 1 2.766.576l23.208 15.816a3.696 3.696 0 0 1 .972 5.13l-3.42 5.019h.894a3.867 3.867 0 0 1 3.862 3.862v1.469a5.063 5.063 0 0 1 2.148 4.137v10.783zM65.53 28.887l-1.446 2.122h4.837c.217 0 .43.015.64.041v-.58c0-.873-.71-1.583-1.583-1.583zm-41.608 2.121h1.75L40 9.983a2.699 2.699 0 0 1 2.586-1.15 6.372 6.372 0 0 0 3.938-.727 2.666 2.666 0 0 1 2.804.138l12.03 8.198a2.666 2.666 0 0 1 1.154 2.56 6.37 6.37 0 0 0 .764 3.931 2.665 2.665 0 0 1-.125 2.827l-3.576 5.248h1.75l7.295-10.704a1.414 1.414 0 0 0-.372-1.962L45.04 2.526a1.403 1.403 0 0 0-1.058-.22c-.37.07-.691.28-.904.592zm29.03 0h3.864l4.452-6.532a.405.405 0 0 0 .022-.423 8.664 8.664 0 0 1-1.039-5.347.403.403 0 0 0-.176-.38l-12.031-8.198a.402.402 0 0 0-.418-.026 8.667 8.667 0 0 1-5.357.99.395.395 0 0 0-.385.175L28.43 31.008h5.778c.332-4.881 4.407-8.752 9.371-8.752 4.965 0 9.04 3.87 9.372 8.752zm-2.286 0c-.327-3.623-3.38-6.472-7.086-6.472-3.707 0-6.759 2.85-7.085 6.472zm-45.18 0h4.067l.21-2.122H7.067c-.873 0-1.583.71-1.583 1.583zm-2.956 8.23h69.178v-3.163a2.79 2.79 0 0 0-2.787-2.787H5.317a2.79 2.79 0 0 0-2.787 2.787zM71.708 71.77H15.976a1.14 1.14 0 1 1 0-2.28h55.732v-5.34h-10.84c-4.766 0-8.645-3.878-8.645-8.646a8.619 8.619 0 0 1 .82-3.67l.034-.075.015-.029c1.404-2.881 4.362-4.872 7.777-4.872h10.839v-5.34H2.53V69.49h6.147a1.14 1.14 0 1 1 0 2.28H2.53v3.162a2.79 2.79 0 0 0 2.787 2.787H68.92a2.79 2.79 0 0 0 2.787-2.787zm3.76-22.349a.283.283 0 0 0-.283-.283H60.869a6.372 6.372 0 0 0-6.366 6.366 6.335 6.335 0 0 0 .77 3.032 6.372 6.372 0 0 0 5.596 3.334h14.316a.283.283 0 0 0 .283-.283z"/></g></g></svg>