<svg xmlns="http://www.w3.org/2000/svg" width="30" height="30" viewBox="0 0 30 30"><g><g><g><path fill="#f8f8f8" d="M16.201 13.7h-.106v2.394a4.408 4.408 0 0 0 3.294-1.15c.922-.845 1.44-2.034 1.449-3.348-.13-2.522-2.196-4.5-4.7-4.496h-3.822a.358.358 0 0 0-.357.36V17.5l-.737.001c-.648 0-1.173.604-1.172 1.348 0 .743.526 1.346 1.174 1.345h.735v1.602c0 .744.598 1.347 1.336 1.347.738 0 1.337-.603 1.337-1.347v-1.605l2.058-.002c.648 0 1.173-.604 1.173-1.347-.001-.744-.527-1.346-1.174-1.346l-2.056.002.001-7.956h1.522a2.325 2.325 0 0 1 2.329 2.167 2.044 2.044 0 0 1-.672 1.465 2.065 2.065 0 0 1-1.566.526z"/></g><g><path fill="#f8f8f8" d="M16.09 13.7h.152c.573.05 1.14-.14 1.566-.526.416-.377.658-.906.672-1.465a2.325 2.325 0 0 0-2.33-2.167L16.134 7.1c2.504-.003 4.57 1.974 4.7 4.496-.01 1.314-.527 2.503-1.45 3.348a4.408 4.408 0 0 1-3.293 1.15z"/></g><g><path fill="#f8f8f8" d="M16.26 13.7l-.068 2.396-4.83-.03a1.342 1.342 0 0 1 0-2.686c.74 0 3.313.32 4.898.32z"/></g></g><g><path fill="#f8f8f8" d="M8.655 7.147l-2.447-.003.477-.468a11.876 11.876 0 0 1 13.208-2.33 11.867 11.867 0 0 1-6.384 22.583A11.868 11.868 0 0 1 3.127 15.448a1.234 1.234 0 0 0-2.467.06A14.335 14.335 0 0 0 13.2 29.378a14.334 14.334 0 1 0 7.712-27.278 14.346 14.346 0 0 0-15.622 2.5l-.46.422V2.857a1.228 1.228 0 0 0-2.455 0V8.37c0 .677.549 1.227 1.227 1.228l5.05.005a1.228 1.228 0 1 0 .003-2.456z"/></g></g></svg>