<svg xmlns="http://www.w3.org/2000/svg" width="128" height="16" viewBox="0 0 128 16"><g><g><g/><g><g><text dominant-baseline="text-before-edge" style="line-height:24px;font-kerning:normal" fill="#e30611" font-family="'MTS Sans','MTSSans-Regular'" font-size="20" letter-spacing="-.15" transform="translate(74 -4)"><tspan style="line-height:24px;font-kerning:normal">Касса</tspan></text></g></g><g><g><path fill="#e30611" d="M0 9.689C0 12.831 1.764 16 5.714 16c3.947 0 5.715-3.169 5.715-6.311 0-2.146-.725-4.618-1.935-6.614C8.317 1.147 6.904 0 5.714 0 4.522 0 3.107 1.147 1.941 3.075.725 5.07 0 7.543 0 9.689z"/></g><g><path fill="#e30611" d="M40.57 4.717h-4V.86h12.286v3.857h-4v10.429H40.57z"/></g><g><path fill="#e30611" d="M57.999 4.717h6.286V.86h-6.286c-5.776 0-8.859 2.871-8.859 7.143 0 4.271 3.083 7.143 8.86 7.143h6.285v-3.857h-6.286c-2.673 0-4.43-.956-4.43-3.286s1.757-3.286 4.43-3.286z"/></g><g><path fill="#e30611" d="M25.566 9.387L27.851.86h7.573v14.286h-4.286V3.518l-3.115 11.628H23.11l-3.113-11.62v11.62H15.71V.86h7.571z"/></g></g></g></g></svg>