<svg width="183" height="24" viewBox="0 0 183 24" fill="none" xmlns="http://www.w3.org/2000/svg">
<g clip-path="url(#clip0)">
<path d="M103.56 6.2H101.76V20H103.56V13.84H104.94L109.72 20H111.92L106.46 12.98L111.48 6.2H109.44L104.94 12.32H103.56V6.2ZM112.702 17.32C112.702 19 113.802 20.2 116.102 20.2C117.522 20.2 118.682 19.68 119.422 18.64V20H121.022V13.58C121.022 10.98 119.582 9.84 117.062 9.84C114.602 9.84 113.222 10.98 113.042 13.04H114.742C114.882 11.7 115.742 11.18 117.062 11.18C118.542 11.18 119.322 11.74 119.322 13.56V14L116.482 14.28C113.802 14.54 112.702 15.4 112.702 17.32ZM116.402 18.94C115.122 18.94 114.402 18.44 114.402 17.5V17.06C114.402 15.96 115.102 15.58 116.562 15.42L119.322 15.14V16.14C119.322 18.06 118.002 18.94 116.402 18.94ZM131.809 17H130.109C129.909 18.42 129.009 18.86 127.669 18.86C125.989 18.86 125.069 17.8 125.069 15.64V14.4C125.069 12.32 125.909 11.18 127.669 11.18C128.969 11.18 129.869 11.66 130.049 13.12H131.749C131.509 10.66 129.949 9.84 127.669 9.84C124.669 9.84 123.289 11.68 123.289 15.04C123.289 18.48 124.729 20.2 127.669 20.2C129.929 20.2 131.469 19.3 131.809 17ZM141.968 17H140.268C140.068 18.42 139.168 18.86 137.828 18.86C136.148 18.86 135.228 17.8 135.228 15.64V14.4C135.228 12.32 136.068 11.18 137.828 11.18C139.128 11.18 140.028 11.66 140.208 13.12H141.908C141.668 10.66 140.108 9.84 137.828 9.84C134.828 9.84 133.448 11.68 133.448 15.04C133.448 18.48 134.888 20.2 137.828 20.2C140.088 20.2 141.628 19.3 141.968 17ZM143.569 17.32C143.569 19 144.669 20.2 146.969 20.2C148.389 20.2 149.549 19.68 150.289 18.64V20H151.889V13.58C151.889 10.98 150.449 9.84 147.929 9.84C145.469 9.84 144.089 10.98 143.909 13.04H145.609C145.749 11.7 146.609 11.18 147.929 11.18C149.409 11.18 150.189 11.74 150.189 13.56V14L147.349 14.28C144.669 14.54 143.569 15.4 143.569 17.32ZM147.269 18.94C145.989 18.94 145.269 18.44 145.269 17.5V17.06C145.269 15.96 145.969 15.58 147.429 15.42L150.189 15.14V16.14C150.189 18.06 148.869 18.94 147.269 18.94Z" fill="#E30611"/>
<path fill-rule="evenodd" clip-rule="evenodd" d="M26 14.689C26 17.8312 27.7641 21 31.7143 21C35.661 21 37.4286 17.8312 37.4286 14.689C37.4286 12.5426 36.7038 10.0709 35.4939 8.07454C34.3174 6.1467 32.9037 5 31.7143 5C30.5216 5 29.1073 6.1467 27.941 8.07454C26.7254 10.0709 26 12.5426 26 14.689Z" fill="#E30611"/>
<path fill-rule="evenodd" clip-rule="evenodd" d="M66.571 9.71422H62.571V5.85718H74.8568V9.71422H70.8568V20.1428H66.571V9.71422Z" fill="#E30611"/>
<path fill-rule="evenodd" clip-rule="evenodd" d="M83.9992 9.71439H90.2853V5.85718H83.9997C78.2241 5.85718 75.1406 8.72863 75.1406 13.0001C75.1406 17.2715 78.2241 20.143 83.9997 20.143H90.2853V16.2858H83.9992C81.3268 16.2858 79.5692 15.3304 79.5692 13.0001C79.5692 10.6697 81.3268 9.71439 83.9992 9.71439Z" fill="#E30611"/>
<path fill-rule="evenodd" clip-rule="evenodd" d="M51.5706 14.3842L53.8554 5.85718H61.4289V20.143H57.143V8.51562L54.0276 20.143H49.1136L46.0002 8.52301L46.0001 20.143H41.7145V5.85718H49.2858L51.5706 14.3842Z" fill="#E30611"/>
</g>
<defs>
<clipPath id="clip0">
<rect width="183" height="24" fill="white"/>
</clipPath>
</defs>
</svg>
