<svg xmlns="http://www.w3.org/2000/svg" width="12" height="20" viewBox="0 0 12 20"><g><g><path fill="#f2f2f3" d="M8.2 5.161c0-1.178-.993-2.136-2.214-2.136-1.22 0-2.213.958-2.213 2.136 0 1.178.994 2.137 2.213 2.137 1.221 0 2.214-.96 2.214-2.137zm3.133 0c0 2.846-2.397 5.16-5.347 5.16-2.948 0-5.346-2.314-5.346-5.16S3.038 0 5.986 0c2.95 0 5.347 2.315 5.347 5.161zm-.065 8.132a10.219 10.219 0 0 1-3.105 1.24l2.99 2.886c.612.59.612 1.548 0 2.138-.612.59-1.604.59-2.215 0L6 16.722l-2.936 2.835A1.594 1.594 0 0 1 1.955 20c-.4 0-.801-.148-1.107-.443a1.476 1.476 0 0 1-.001-2.138l2.99-2.885a10.234 10.234 0 0 1-3.105-1.242 1.482 1.482 0 0 1-.49-2.084c.459-.708 1.426-.921 2.159-.476a6.996 6.996 0 0 0 7.198 0c.733-.445 1.7-.232 2.16.476.461.706.24 1.64-.491 2.084z"/></g></g></svg>