<svg xmlns="http://www.w3.org/2000/svg" width="80" height="80" viewBox="0 0 80 80"><g><g><g/><g><g><g><path fill="#e30712" d="M41.582 71.76v6.675c0 .863-.7 1.562-1.562 1.562H1.562C.7 79.997 0 79.297 0 78.435v-6.676c0-7.555 5.805-13.778 13.19-14.447.112-.032.228-.05.344-.056a9.985 9.985 0 0 1-2.766-6.903v-7.65c0-4.413 3.59-8.003 8.004-8.003h10.48c.863 0 1.562.7 1.562 1.563v5.2c0 .151-.007.3-.017.45.01.071.017.145.017.22v8.22a9.985 9.985 0 0 1-2.765 6.902c.116.007.232.025.345.057 7.384.669 13.188 6.892 13.188 14.447zM13.893 44.784h10.474a3.326 3.326 0 0 0 3.322-3.322v-3.638h-8.917a4.884 4.884 0 0 0-4.879 4.878zm0 5.568a6.906 6.906 0 0 0 6.898 6.898 6.906 6.906 0 0 0 6.898-6.898v-3.367a6.406 6.406 0 0 1-3.322.924H13.893zm3.497 10.023l3.401 3.401 3.401-3.4zM38.459 71.76c0-5.787-4.344-10.577-9.941-11.288l-6.62 6.62a1.563 1.563 0 0 1-2.21 0l-6.621-6.62c-5.227.664-9.36 4.883-9.884 10.151h6.427a1.563 1.563 0 0 1 0 3.125H3.125v3.125h35.333z"/><path fill="none" stroke="#ebeef0" stroke-miterlimit="50" d="M41.582 71.76v6.675c0 .863-.7 1.562-1.562 1.562H1.562C.7 79.997 0 79.297 0 78.435v-6.676c0-7.555 5.805-13.778 13.19-14.447.112-.032.228-.05.344-.056a9.985 9.985 0 0 1-2.766-6.903v-7.65c0-4.413 3.59-8.003 8.004-8.003h10.48c.863 0 1.562.7 1.562 1.563v5.2c0 .151-.007.3-.017.45.01.071.017.145.017.22v8.22a9.985 9.985 0 0 1-2.765 6.902c.116.007.232.025.345.057 7.384.669 13.188 6.892 13.188 14.447zM13.893 44.784h10.474a3.326 3.326 0 0 0 3.322-3.322v-3.638h-8.917a4.884 4.884 0 0 0-4.879 4.878zm0 5.568a6.906 6.906 0 0 0 6.898 6.898 6.906 6.906 0 0 0 6.898-6.898v-3.367a6.406 6.406 0 0 1-3.322.924H13.893zm3.497 10.023l3.401 3.401 3.401-3.4zM38.459 71.76c0-5.787-4.344-10.577-9.941-11.288l-6.62 6.62a1.563 1.563 0 0 1-2.21 0l-6.621-6.62c-5.227.664-9.36 4.883-9.884 10.151h6.427a1.563 1.563 0 0 1 0 3.125H3.125v3.125h35.333z"/></g></g></g><g><g><g><path fill="#e30712" d="M80.002 37.06v6.675c0 .863-.699 1.562-1.562 1.562H65.367a1.562 1.562 0 1 1 0-3.125h11.51V37.06c0-5.787-4.342-10.576-9.94-11.288l-6.621 6.62a1.557 1.557 0 0 1-1.105.459c-.4 0-.8-.153-1.105-.458l-6.62-6.62c-5.598.71-9.941 5.5-9.941 11.287v5.113h11.01a1.562 1.562 0 1 1 0 3.125H39.982c-.863 0-1.563-.7-1.563-1.562v-6.676c0-7.555 5.805-13.778 13.188-14.447.113-.032.23-.05.346-.057a9.985 9.985 0 0 1-2.766-6.902v-7.65C49.188 3.59 52.778 0 57.192 0h10.48c.863 0 1.562.7 1.562 1.562v5.201c0 .151-.007.3-.017.45.01.071.017.145.017.22v8.22a9.985 9.985 0 0 1-2.765 6.903c.116.006.232.024.345.056 7.384.67 13.188 6.893 13.188 14.447zm-17.39-11.383h-6.801l3.4 3.4zm3.497-10.024v-3.367a6.408 6.408 0 0 1-3.321.924H52.313v2.443a6.906 6.906 0 0 0 6.898 6.898 6.906 6.906 0 0 0 6.898-6.898zm0-12.528h-8.917a4.884 4.884 0 0 0-4.879 4.879v2.081h10.475a3.326 3.326 0 0 0 3.322-3.322z"/><path fill="none" stroke="#ebeef0" stroke-miterlimit="50" d="M80.002 37.06v6.675c0 .863-.699 1.562-1.562 1.562H65.367a1.562 1.562 0 1 1 0-3.125h11.51V37.06c0-5.787-4.342-10.576-9.94-11.288l-6.621 6.62a1.557 1.557 0 0 1-1.105.459c-.4 0-.8-.153-1.105-.458l-6.62-6.62c-5.598.71-9.941 5.5-9.941 11.287v5.113h11.01a1.562 1.562 0 1 1 0 3.125H39.982c-.863 0-1.563-.7-1.563-1.562v-6.676c0-7.555 5.805-13.778 13.188-14.447.113-.032.23-.05.346-.057a9.985 9.985 0 0 1-2.766-6.902v-7.65C49.188 3.59 52.778 0 57.192 0h10.48c.863 0 1.562.7 1.562 1.562v5.201c0 .151-.007.3-.017.45.01.071.017.145.017.22v8.22a9.985 9.985 0 0 1-2.765 6.903c.116.006.232.024.345.056 7.384.67 13.188 6.893 13.188 14.447zm-17.39-11.383h-6.801l3.4 3.4zm3.497-10.024v-3.367a6.408 6.408 0 0 1-3.321.924H52.313v2.443a6.906 6.906 0 0 0 6.898 6.898 6.906 6.906 0 0 0 6.898-6.898zm0-12.528h-8.917a4.884 4.884 0 0 0-4.879 4.879v2.081h10.475a3.326 3.326 0 0 0 3.322-3.322z"/></g></g></g><g><g><g><path fill="#e30712" d="M60.317 42.628a1.574 1.574 0 0 0-1.105-.458 1.568 1.568 0 0 0-1.563 1.563 1.565 1.565 0 0 0 1.564 1.562c.41 0 .814-.166 1.104-.458.29-.29.458-.692.458-1.105 0-.41-.167-.814-.458-1.104z"/><path fill="none" stroke="#ebeef0" stroke-miterlimit="50" d="M60.317 42.628a1.574 1.574 0 0 0-1.105-.458 1.568 1.568 0 0 0-1.563 1.563 1.565 1.565 0 0 0 1.564 1.562c.41 0 .814-.166 1.104-.458.29-.29.458-.692.458-1.105 0-.41-.167-.814-.458-1.104z"/></g></g></g><g><g><g><path fill="#e30712" d="M41.782 21.864a1.563 1.563 0 0 1-1.105 2.667h-6.013a7.769 7.769 0 0 1-7.23 4.844H7.813C3.505 29.375 0 25.87 0 21.562V7.813C0 3.505 3.505 0 7.812 0h19.623c4.308 0 7.812 3.505 7.812 7.813v7.516zm-4.877-.458l-4.325-4.325a1.563 1.563 0 0 1-.458-1.104V7.812a4.693 4.693 0 0 0-4.687-4.687H7.812a4.693 4.693 0 0 0-4.687 4.687v13.75a4.693 4.693 0 0 0 4.687 4.688h19.623A4.662 4.662 0 0 0 32 22.618a1.563 1.563 0 0 1 1.523-1.212z"/><path fill="none" stroke="#ebeef0" stroke-miterlimit="50" d="M41.782 21.864a1.563 1.563 0 0 1-1.105 2.667h-6.013a7.769 7.769 0 0 1-7.23 4.844H7.813C3.505 29.375 0 25.87 0 21.562V7.813C0 3.505 3.505 0 7.812 0h19.623c4.308 0 7.812 3.505 7.812 7.813v7.516zm-4.877-.458l-4.325-4.325a1.563 1.563 0 0 1-.458-1.104V7.812a4.693 4.693 0 0 0-4.687-4.687H7.812a4.693 4.693 0 0 0-4.687 4.687v13.75a4.693 4.693 0 0 0 4.687 4.688h19.623A4.662 4.662 0 0 0 32 22.618a1.563 1.563 0 0 1 1.523-1.212z"/></g></g></g><g><g><g><path fill="#e30712" d="M72.187 50.63c4.308 0 7.813 3.505 7.813 7.813v13.75c0 4.307-3.505 7.812-7.813 7.812H52.565c-4.308 0-7.813-3.505-7.813-7.813v-7.516l-6.534-6.535a1.563 1.563 0 0 1 1.105-2.667h6.013a7.769 7.769 0 0 1 7.229-4.844zm4.688 7.813a4.693 4.693 0 0 0-4.688-4.688H52.565a4.662 4.662 0 0 0-4.567 3.632 1.563 1.563 0 0 1-1.522 1.212h-3.381l4.325 4.325c.293.293.457.69.457 1.104v8.164a4.693 4.693 0 0 0 4.688 4.688h19.622a4.693 4.693 0 0 0 4.688-4.687z"/><path fill="none" stroke="#ebeef0" stroke-miterlimit="50" d="M72.187 50.63c4.308 0 7.813 3.505 7.813 7.813v13.75c0 4.307-3.505 7.812-7.813 7.812H52.565c-4.308 0-7.813-3.505-7.813-7.813v-7.516l-6.534-6.535a1.563 1.563 0 0 1 1.105-2.667h6.013a7.769 7.769 0 0 1 7.229-4.844zm4.688 7.813a4.693 4.693 0 0 0-4.688-4.688H52.565a4.662 4.662 0 0 0-4.567 3.632 1.563 1.563 0 0 1-1.522 1.212h-3.381l4.325 4.325c.293.293.457.69.457 1.104v8.164a4.693 4.693 0 0 0 4.688 4.688h19.622a4.693 4.693 0 0 0 4.688-4.687z"/></g></g></g><g><g><g><path fill="#e30712" d="M69.402 61.158c-.61-.61-1.6-.61-2.21 0L63.04 65.31l-1.932-1.931a1.563 1.563 0 0 0-2.21 2.21l3.037 3.036c.305.305.705.458 1.105.458s.8-.153 1.105-.458l5.258-5.259c.61-.61.61-1.6 0-2.21z"/><path fill="none" stroke="#ebeef0" stroke-miterlimit="50" d="M69.402 61.158c-.61-.61-1.6-.61-2.21 0L63.04 65.31v0l-1.932-1.931a1.563 1.563 0 0 0-2.21 2.21l3.037 3.036c.305.305.705.458 1.105.458s.8-.153 1.105-.458l5.258-5.259c.61-.61.61-1.6 0-2.21z"/></g></g></g><g><g><g><path fill="#e30712" d="M24.732 10.357a5.43 5.43 0 0 0-5.024-5.024 5.373 5.373 0 0 0-4.077 1.444 5.437 5.437 0 0 0-1.721 3.96 1.563 1.563 0 0 0 3.125 0c0-.641.259-1.237.729-1.676a2.293 2.293 0 0 1 3.85 1.51 2.283 2.283 0 0 1-1.782 2.404 2.624 2.624 0 0 0-2.067 2.573v.833a1.563 1.563 0 0 0 3.125 0v-.455a5.388 5.388 0 0 0 3.842-5.57z"/><path fill="none" stroke="#ebeef0" stroke-miterlimit="50" d="M24.732 10.357a5.43 5.43 0 0 0-5.024-5.024 5.373 5.373 0 0 0-4.077 1.444 5.437 5.437 0 0 0-1.721 3.96 1.563 1.563 0 0 0 3.125 0c0-.641.259-1.237.729-1.676a2.293 2.293 0 0 1 3.85 1.51 2.283 2.283 0 0 1-1.782 2.404 2.624 2.624 0 0 0-2.067 2.573v.833a1.563 1.563 0 0 0 3.125 0v-.455a5.388 5.388 0 0 0 3.842-5.57z"/></g></g></g><g><g><g><path fill="#e30712" d="M20.427 21.258a1.574 1.574 0 0 0-1.105-.458 1.568 1.568 0 0 0-1.563 1.563c.001.41.167.814.459 1.104.29.29.692.458 1.104.458.411 0 .815-.167 1.105-.458.29-.29.458-.694.458-1.104 0-.411-.167-.815-.458-1.105z"/><path fill="none" stroke="#ebeef0" stroke-miterlimit="50" d="M20.427 21.258a1.574 1.574 0 0 0-1.105-.458 1.568 1.568 0 0 0-1.563 1.563c.001.41.167.814.459 1.104.29.29.692.458 1.104.458.411 0 .815-.167 1.105-.458.29-.29.458-.694.458-1.104 0-.411-.167-.815-.458-1.105z"/></g></g></g><g><g><g><path fill="#e30712" d="M16.967 71.088a1.574 1.574 0 0 0-1.105-.458c-.41 0-.814.167-1.104.458-.29.29-.458.694-.458 1.105 0 .41.167.814.458 1.104.29.29.694.458 1.105.458.41 0 .814-.167 1.104-.458.29-.29.458-.694.458-1.104 0-.411-.167-.815-.458-1.105z"/><path fill="none" stroke="#ebeef0" stroke-miterlimit="50" d="M16.967 71.088a1.574 1.574 0 0 0-1.105-.458c-.41 0-.814.167-1.104.458-.29.29-.458.694-.458 1.105 0 .41.167.814.458 1.104.29.29.694.458 1.105.458.41 0 .814-.167 1.104-.458.29-.29.458-.694.458-1.104 0-.411-.167-.815-.458-1.105z"/></g></g></g></g></g></svg>