<svg xmlns="http://www.w3.org/2000/svg" width="80" height="80" viewBox="0 0 80 80"><g><g><path fill="#e30712" d="M76.875 38.438A3.129 3.129 0 0 1 80 41.562v5.626a3.129 3.129 0 0 1-3.125 3.124h-1.25v28.126c0 .862-.7 1.562-1.563 1.562H5.939c-.863 0-1.563-.7-1.563-1.563V68.126a1.563 1.563 0 0 1 3.125 0v8.75h65V57.812H55.364a1.563 1.563 0 0 1 0-3.124H72.5v-4.376h-65v4.622a1.563 1.563 0 0 1-3.125 0v-4.621h-1.25A3.129 3.129 0 0 1 0 47.187v-5.624a3.129 3.129 0 0 1 3.125-3.126h.485V33.71c0-6.912 5.306-12.605 12.058-13.227l.048-.012a9.187 9.187 0 0 1-2.354-6.147V7.396C13.362 3.318 16.68 0 20.758 0h9.49c.863 0 1.563.7 1.563 1.563v12.76c0 2.36-.891 4.514-2.354 6.147l.048.012c4.556.42 8.452 3.148 10.505 7.003 2.053-3.855 5.95-6.583 10.505-7.003l.048-.012a9.187 9.187 0 0 1-2.354-6.147V7.396C48.209 3.318 51.527 0 55.604 0h9.492c.862 0 1.562.7 1.562 1.563v12.76c0 2.36-.891 4.514-2.354 6.147l.048.012c6.752.622 12.058 6.315 12.058 13.227v4.728zM63.533 14.323V11.53a5.95 5.95 0 0 1-2.86.73h-9.339v2.064c0 3.364 2.736 6.1 6.1 6.1 3.363 0 6.1-2.736 6.1-6.1zm-8.823 9.225l2.723 2.724 2.724-2.724zM51.334 7.396v1.737h9.338a2.864 2.864 0 0 0 2.861-2.86V3.125h-7.929a4.276 4.276 0 0 0-4.27 4.27zm-9.752 31.041h31.703V33.71c0-5.142-3.84-9.401-8.802-10.068l-5.945 5.945a1.558 1.558 0 0 1-2.21 0l-5.944-5.945c-4.962.667-8.802 4.926-8.802 10.068zM28.686 14.323V11.53a5.95 5.95 0 0 1-2.86.73h-9.339v2.064c0 3.364 2.736 6.1 6.1 6.1 3.363 0 6.1-2.736 6.1-6.1zm-8.823 9.225l2.723 2.724 2.724-2.724zM16.486 9.133h9.338a2.864 2.864 0 0 0 2.86-2.86V3.125h-7.927a4.276 4.276 0 0 0-4.271 4.27zM6.735 38.438h31.702v-4.73c0-5.14-3.84-9.4-8.801-10.066l-5.945 5.944a1.558 1.558 0 0 1-1.105.458c-.4 0-.8-.153-1.105-.458l-5.944-5.945c-4.962.667-8.802 4.926-8.802 10.068zm70.14 8.75h.002l-.002-5.626H3.125v5.626z"/><path fill="none" stroke="#ebeef0" stroke-miterlimit="50" d="M76.875 38.438A3.129 3.129 0 0 1 80 41.562v5.626a3.129 3.129 0 0 1-3.125 3.124h-1.25v28.126c0 .862-.7 1.562-1.563 1.562H5.939c-.863 0-1.563-.7-1.563-1.563V68.126a1.563 1.563 0 0 1 3.125 0v8.75h65V57.812H55.364a1.563 1.563 0 0 1 0-3.124H72.5v-4.376h-65v4.622a1.563 1.563 0 0 1-3.125 0v-4.621h-1.25A3.129 3.129 0 0 1 0 47.187v-5.624a3.129 3.129 0 0 1 3.125-3.126h.485V33.71c0-6.912 5.306-12.605 12.058-13.227l.048-.012a9.187 9.187 0 0 1-2.354-6.147V7.396C13.362 3.318 16.68 0 20.758 0h9.49c.863 0 1.563.7 1.563 1.563v12.76c0 2.36-.891 4.514-2.354 6.147l.048.012c4.556.42 8.452 3.148 10.505 7.003 2.053-3.855 5.95-6.583 10.505-7.003l.048-.012a9.187 9.187 0 0 1-2.354-6.147V7.396C48.209 3.318 51.527 0 55.604 0h9.492c.862 0 1.562.7 1.562 1.563v12.76c0 2.36-.891 4.514-2.354 6.147l.048.012c6.752.622 12.058 6.315 12.058 13.227v4.728zM63.533 14.323V11.53a5.95 5.95 0 0 1-2.86.73h-9.339v2.064c0 3.364 2.736 6.1 6.1 6.1 3.363 0 6.1-2.736 6.1-6.1zm-8.823 9.225l2.723 2.724 2.724-2.724zM51.334 7.396v1.737h9.338a2.864 2.864 0 0 0 2.861-2.86V3.125h-7.929a4.276 4.276 0 0 0-4.27 4.27zm-9.752 31.041h31.703V33.71c0-5.142-3.84-9.401-8.802-10.068l-5.945 5.945a1.558 1.558 0 0 1-2.21 0l-5.944-5.945c-4.962.667-8.802 4.926-8.802 10.068zM28.686 14.323V11.53a5.95 5.95 0 0 1-2.86.73h-9.339v2.064c0 3.364 2.736 6.1 6.1 6.1 3.363 0 6.1-2.736 6.1-6.1zm-8.823 9.225l2.723 2.724 2.724-2.724zM16.486 9.133h9.338a2.864 2.864 0 0 0 2.86-2.86V3.125h-7.927a4.276 4.276 0 0 0-4.271 4.27zM6.735 38.438h31.702v-4.73c0-5.14-3.84-9.4-8.801-10.066l-5.945 5.944a1.558 1.558 0 0 1-1.105.458c-.4 0-.8-.153-1.105-.458l-5.944-5.945c-4.962.667-8.802 4.926-8.802 10.068zm70.14 8.75h.002l-.002-5.626H3.125v5.626z"/></g></g></svg>