<svg xmlns="http://www.w3.org/2000/svg" width="80" height="74" viewBox="0 0 80 74"><g><g><g/><g><g><g><path fill="#e30712" d="M62.797 63.545v7.672c0 .863-.7 1.563-1.562 1.563H18.763c-.863 0-1.563-.7-1.563-1.563v-7.672c0-8.263 6.353-15.07 14.43-15.794.22-.065.45-.08.674-.047l.08-.003a10.872 10.872 0 0 1-3.292-7.797v-8.448c0-4.784 3.892-8.676 8.676-8.676h11.574c.863 0 1.563.7 1.563 1.562v15.562c0 3.053-1.263 5.816-3.29 7.797l.078.003a1.57 1.57 0 0 1 .674.047c8.078.725 14.43 7.531 14.43 15.794zm-30.58-29.627h11.731a3.836 3.836 0 0 0 3.832-3.832v-4.181H37.768a5.557 5.557 0 0 0-5.551 5.55zm0 5.986c0 4.291 3.49 7.782 7.781 7.782 4.29 0 7.782-3.491 7.782-7.782V35.89a6.915 6.915 0 0 1-3.832 1.154H32.217zm3.632 10.907l4.15 4.15 4.15-4.15zm23.823 12.734c0-6.502-4.9-11.878-11.2-12.638l-7.369 7.368a1.558 1.558 0 0 1-1.105.458c-.4 0-.8-.153-1.104-.458l-7.369-7.368c-5.804.7-10.417 5.319-11.107 11.126h12.657a1.563 1.563 0 0 1 0 3.125h-12.75v4.497h39.347z"/><path fill="none" stroke="#fff" stroke-miterlimit="50" d="M62.797 63.545v7.672c0 .863-.7 1.563-1.562 1.563H18.763c-.863 0-1.563-.7-1.563-1.563v-7.672c0-8.263 6.353-15.07 14.43-15.794.22-.065.45-.08.674-.047l.08-.003a10.872 10.872 0 0 1-3.292-7.797v-8.448c0-4.784 3.892-8.676 8.676-8.676h11.574c.863 0 1.563.7 1.563 1.562v15.562c0 3.053-1.263 5.816-3.29 7.797l.078.003a1.57 1.57 0 0 1 .674.047c8.078.725 14.43 7.531 14.43 15.794zm-30.58-29.627h11.731a3.836 3.836 0 0 0 3.832-3.832v-4.181H37.768a5.557 5.557 0 0 0-5.551 5.55zm0 5.986c0 4.291 3.49 7.782 7.781 7.782 4.29 0 7.782-3.491 7.782-7.782V35.89a6.915 6.915 0 0 1-3.832 1.154H32.217zm3.632 10.907l4.15 4.15 4.15-4.15zm23.823 12.734c0-6.502-4.9-11.878-11.2-12.638l-7.369 7.368a1.558 1.558 0 0 1-1.105.458c-.4 0-.8-.153-1.104-.458l-7.369-7.368c-5.804.7-10.417 5.319-11.107 11.126h12.657a1.563 1.563 0 0 1 0 3.125h-12.75v4.497h39.347z"/></g></g></g><g><g><g><path fill="#e30712" d="M41.107 62.488a1.574 1.574 0 0 0-1.104-.458c-.411 0-.815.167-1.105.458-.29.29-.458.694-.458 1.105 0 .41.167.814.458 1.104.29.29.694.458 1.105.458.41 0 .814-.167 1.104-.458.29-.29.458-.694.458-1.104 0-.411-.167-.815-.458-1.105z"/><path fill="none" stroke="#fff" stroke-miterlimit="50" d="M41.107 62.488a1.574 1.574 0 0 0-1.104-.458c-.411 0-.815.167-1.105.458-.29.29-.458.694-.458 1.105 0 .41.167.814.458 1.104.29.29.694.458 1.105.458.41 0 .814-.167 1.104-.458.29-.29.458-.694.458-1.104 0-.411-.167-.815-.458-1.105z"/></g></g></g><g><g><g><path fill="#e30712" d="M45.955 7.157a5.947 5.947 0 0 1-4.375 5.728V16.7a1.563 1.563 0 0 1-3.125 0v-3.816a5.947 5.947 0 0 1-4.375-5.728 5.944 5.944 0 0 1 5.938-5.937 5.944 5.944 0 0 1 5.937 5.937zm-3.125 0a2.816 2.816 0 0 0-2.813-2.812 2.816 2.816 0 0 0-2.812 2.813 2.816 2.816 0 0 0 2.813 2.812 2.816 2.816 0 0 0 2.812-2.813z"/><path fill="none" stroke="#fff" stroke-miterlimit="50" d="M45.955 7.157a5.947 5.947 0 0 1-4.375 5.728V16.7a1.563 1.563 0 0 1-3.125 0v-3.816a5.947 5.947 0 0 1-4.375-5.728 5.944 5.944 0 0 1 5.938-5.937 5.944 5.944 0 0 1 5.937 5.937zm-3.125 0a2.816 2.816 0 0 0-2.813-2.812 2.816 2.816 0 0 0-2.812 2.813 2.816 2.816 0 0 0 2.813 2.812 2.816 2.816 0 0 0 2.812-2.813z"/></g></g></g><g><g><g><path fill="#e30712" d="M73.128 17.608a5.898 5.898 0 0 1-1.739 4.198 5.898 5.898 0 0 1-4.198 1.74 5.902 5.902 0 0 1-2.946-.782l-2.698 2.697a1.559 1.559 0 0 1-2.21 0c-.61-.61-.61-1.6 0-2.21l2.7-2.698a5.948 5.948 0 0 1 .955-7.144 5.899 5.899 0 0 1 4.199-1.739 5.9 5.9 0 0 1 4.198 1.74 5.899 5.899 0 0 1 1.74 4.198zm-3.124 0c0-.752-.293-1.458-.824-1.99a2.803 2.803 0 0 0-1.99-.822c-.72 0-1.44.274-1.988.823a2.816 2.816 0 0 0 0 3.978 2.816 2.816 0 0 0 3.978 0 2.794 2.794 0 0 0 .824-1.99z"/><path fill="none" stroke="#fff" stroke-miterlimit="50" d="M73.128 17.608a5.898 5.898 0 0 1-1.739 4.198 5.898 5.898 0 0 1-4.198 1.74 5.902 5.902 0 0 1-2.946-.782l-2.698 2.697a1.559 1.559 0 0 1-2.21 0c-.61-.61-.61-1.6 0-2.21l2.7-2.698a5.948 5.948 0 0 1 .955-7.144 5.899 5.899 0 0 1 4.199-1.739 5.9 5.9 0 0 1 4.198 1.74 5.899 5.899 0 0 1 1.74 4.198zm-3.124 0c0-.752-.293-1.458-.824-1.99a2.803 2.803 0 0 0-1.99-.822c-.72 0-1.44.274-1.988.823a2.816 2.816 0 0 0 0 3.978 2.816 2.816 0 0 0 3.978 0 2.794 2.794 0 0 0 .824-1.99z"/></g></g></g><g><g><g><path fill="#e30712" d="M80.003 44.788a5.944 5.944 0 0 1-5.937 5.937 5.947 5.947 0 0 1-5.727-4.375h-3.817a1.563 1.563 0 0 1 0-3.125h3.817a5.947 5.947 0 0 1 5.727-4.375 5.944 5.944 0 0 1 5.937 5.938zm-3.125 0a2.816 2.816 0 0 0-2.812-2.813 2.816 2.816 0 0 0-2.813 2.813 2.816 2.816 0 0 0 2.813 2.812 2.816 2.816 0 0 0 2.812-2.813z"/><path fill="none" stroke="#fff" stroke-miterlimit="50" d="M80.003 44.788a5.944 5.944 0 0 1-5.937 5.937 5.947 5.947 0 0 1-5.727-4.375h-3.817a1.563 1.563 0 0 1 0-3.125h3.817a5.947 5.947 0 0 1 5.727-4.375 5.944 5.944 0 0 1 5.937 5.938zm-3.125 0a2.816 2.816 0 0 0-2.812-2.813 2.816 2.816 0 0 0-2.813 2.813 2.816 2.816 0 0 0 2.813 2.812 2.816 2.816 0 0 0 2.812-2.813z"/></g></g></g><g><g><g><path fill="#e30712" d="M59.697 43.678a1.574 1.574 0 0 0-1.105-.458c-.41 0-.814.167-1.104.458-.29.29-.458.694-.458 1.104a1.567 1.567 0 0 0 1.563 1.563 1.567 1.567 0 0 0 1.562-1.563c0-.41-.167-.812-.458-1.104z"/><path fill="none" stroke="#fff" stroke-miterlimit="50" d="M59.697 43.678a1.574 1.574 0 0 0-1.105-.458c-.41 0-.814.167-1.104.458-.29.29-.458.694-.458 1.104a1.567 1.567 0 0 0 1.563 1.563 1.567 1.567 0 0 0 1.562-1.563c0-.41-.167-.812-.458-1.104z"/></g></g></g><g><g><g><path fill="#e30712" d="M15.48 43.185a1.563 1.563 0 0 1 0 3.125h-3.815a5.947 5.947 0 0 1-5.728 4.375A5.944 5.944 0 0 1 0 44.747a5.944 5.944 0 0 1 5.937-5.937 5.947 5.947 0 0 1 5.728 4.375zm-6.73 1.563a2.816 2.816 0 0 0-2.813-2.813 2.816 2.816 0 0 0-2.812 2.813 2.816 2.816 0 0 0 2.813 2.812 2.816 2.816 0 0 0 2.812-2.813z"/><path fill="none" stroke="#fff" stroke-miterlimit="50" d="M15.48 43.185a1.563 1.563 0 0 1 0 3.125h-3.815a5.947 5.947 0 0 1-5.728 4.375A5.944 5.944 0 0 1 0 44.747a5.944 5.944 0 0 1 5.937-5.937 5.947 5.947 0 0 1 5.728 4.375zm-6.73 1.563a2.816 2.816 0 0 0-2.813-2.813 2.816 2.816 0 0 0-2.812 2.813 2.816 2.816 0 0 0 2.813 2.812 2.816 2.816 0 0 0 2.812-2.813z"/></g></g></g><g><g><g><path fill="#e30712" d="M20.568 23.1a1.563 1.563 0 0 1-2.21 2.21l-2.697-2.696a5.903 5.903 0 0 1-2.946.781 5.9 5.9 0 0 1-4.199-1.739 5.945 5.945 0 0 1 0-8.397 5.899 5.899 0 0 1 4.199-1.739c1.585 0 3.076.618 4.198 1.74a5.899 5.899 0 0 1 1.74 4.198c0 1.05-.273 2.058-.782 2.946zm-5.04-5.642c0-.752-.293-1.458-.825-1.99a2.804 2.804 0 0 0-1.988-.822c-.72 0-1.44.275-1.989.823a2.816 2.816 0 0 0 0 3.978 2.815 2.815 0 0 0 3.977 0l.001-.001c.53-.531.823-1.237.823-1.988z"/><path fill="none" stroke="#fff" stroke-miterlimit="50" d="M20.568 23.1a1.563 1.563 0 0 1-2.21 2.21l-2.697-2.696a5.903 5.903 0 0 1-2.946.781 5.9 5.9 0 0 1-4.199-1.739 5.945 5.945 0 0 1 0-8.397 5.899 5.899 0 0 1 4.199-1.739c1.585 0 3.076.618 4.198 1.74a5.899 5.899 0 0 1 1.74 4.198c0 1.05-.273 2.058-.782 2.946zm-5.04-5.642c0-.752-.293-1.458-.825-1.99a2.804 2.804 0 0 0-1.988-.822c-.72 0-1.44.275-1.989.823a2.816 2.816 0 0 0 0 3.978 2.815 2.815 0 0 0 3.977 0l.001-.001c.53-.531.823-1.237.823-1.988z"/></g></g></g></g></g></svg>