<svg xmlns="http://www.w3.org/2000/svg" width="82" height="77" viewBox="0 0 82 77"><g><g><path fill="#e30712" d="M59.125 19.75a1.563 1.563 0 1 1-3.126-.001 1.563 1.563 0 0 1 3.126.001zm-48.75 14.062a1.563 1.563 0 1 1-3.126 0 1.563 1.563 0 0 1 3.126 0zM74.75 23.41c3.688 1.305 6.25 4.837 6.25 8.84s-2.563 7.535-6.25 8.84v19.285a6.257 6.257 0 0 1-6.25 6.25 6.248 6.248 0 0 1-6.25-6.25v-.771c-12.936-9.335-29.58-11.332-30-11.447v4.406c0 .862-.7 1.562-1.563 1.562h-4.005c.842 8.65 1.994 12.848 2.268 14.155.543 2.233-.034 4.37-1.584 5.866-3.32 3.205-9.279 2.241-10.556-2.886-.016-.1-2.316-8.405-3.135-23.453C6.57 47.107 1 41.098 1 33.813 1 26.011 7.323 19.75 15.063 19.75h15.495c1.021-.27 18.244-2.025 31.692-11.729V7.25A6.257 6.257 0 0 1 68.5 1a6.21 6.21 0 0 1 4.419 1.831A6.208 6.208 0 0 1 74.75 7.25zM25.907 68.995l-.02-.095c-.989-4.226-1.845-8.885-2.475-16.202-.135-1.573-.25-3.19-.342-4.823h-6.261c.824 14.731 3.01 22.483 3.034 22.629.716 2.876 3.85 2.844 5.352 1.394.528-.51 1.08-1.427.712-2.903zm3.218-21.12H26.2c.06 1.052.13 2.096.21 3.125h2.715zm0-25H15.062c-6.067 0-10.937 4.918-10.937 10.938 0 6.03 4.907 10.937 10.938 10.937h14.062zM62.25 11.809c-13.66 8.934-29.211 10.62-30 10.827V44.99c.752.197 16.346 1.897 30 10.827zm9.375-4.559c0-.834-.325-1.619-.916-2.21a3.105 3.105 0 0 0-2.209-.915 3.129 3.129 0 0 0-3.125 3.125v53.125a3.125 3.125 0 0 0 6.25 0V7.25zm3.125 30.412a6.274 6.274 0 0 0 3.125-5.412 6.274 6.274 0 0 0-3.125-5.412zM52.606 24.071c-4.306 1.762-10.475 3.086-15.369 4.042a1.563 1.563 0 0 1-.6-3.067c4.754-.929 10.73-2.208 14.785-3.867a1.563 1.563 0 1 1 1.184 2.892zM24.437 26a1.563 1.563 0 0 1 0 3.125h-9.375a1.563 1.563 0 0 1 0-3.125zm0 6.25a1.563 1.563 0 0 1 0 3.125h-9.375a1.563 1.563 0 0 1 0-3.125zm0 6.25a1.563 1.563 0 0 1 0 3.125h-9.375a1.563 1.563 0 0 1 0-3.125z"/><path fill="none" stroke="#fff" stroke-miterlimit="50" d="M59.125 19.75a1.563 1.563 0 1 1-3.126-.001 1.563 1.563 0 0 1 3.126.001zm-48.75 14.062a1.563 1.563 0 1 1-3.126 0 1.563 1.563 0 0 1 3.126 0zM74.75 23.41c3.688 1.305 6.25 4.837 6.25 8.84s-2.563 7.535-6.25 8.84v19.285a6.257 6.257 0 0 1-6.25 6.25 6.248 6.248 0 0 1-6.25-6.25v-.771c-12.936-9.335-29.58-11.332-30-11.447v4.406c0 .862-.7 1.562-1.563 1.562h-4.005c.842 8.65 1.994 12.848 2.268 14.155.543 2.233-.034 4.37-1.584 5.866-3.32 3.205-9.279 2.241-10.556-2.886-.016-.1-2.316-8.405-3.135-23.453C6.57 47.107 1 41.098 1 33.813 1 26.011 7.323 19.75 15.063 19.75h15.495c1.021-.27 18.244-2.025 31.692-11.729V7.25A6.257 6.257 0 0 1 68.5 1a6.21 6.21 0 0 1 4.419 1.831A6.208 6.208 0 0 1 74.75 7.25zM25.907 68.995l-.02-.095c-.989-4.226-1.845-8.885-2.475-16.202-.135-1.573-.25-3.19-.342-4.823h-6.261c.824 14.731 3.01 22.483 3.034 22.629.716 2.876 3.85 2.844 5.352 1.394.528-.51 1.08-1.427.712-2.903zm3.218-21.12H26.2c.06 1.052.13 2.096.21 3.125h2.715zm0-25H15.062c-6.067 0-10.937 4.918-10.937 10.938 0 6.03 4.907 10.937 10.938 10.937h14.062zM62.25 11.809c-13.66 8.934-29.211 10.62-30 10.827V44.99c.752.197 16.346 1.897 30 10.827zm9.375-4.559c0-.834-.325-1.619-.916-2.21a3.105 3.105 0 0 0-2.209-.915 3.129 3.129 0 0 0-3.125 3.125v53.125a3.125 3.125 0 0 0 6.25 0V7.25zm3.125 30.412a6.274 6.274 0 0 0 3.125-5.412 6.274 6.274 0 0 0-3.125-5.412zM52.606 24.071c-4.306 1.762-10.475 3.086-15.369 4.042a1.563 1.563 0 0 1-.6-3.067c4.754-.929 10.73-2.208 14.785-3.867a1.563 1.563 0 1 1 1.184 2.892zM24.437 26a1.563 1.563 0 0 1 0 3.125h-9.375a1.563 1.563 0 0 1 0-3.125zm0 6.25a1.563 1.563 0 0 1 0 3.125h-9.375a1.563 1.563 0 0 1 0-3.125zm0 6.25a1.563 1.563 0 0 1 0 3.125h-9.375a1.563 1.563 0 0 1 0-3.125z"/></g></g></svg>