<svg xmlns="http://www.w3.org/2000/svg" width="82" height="82" viewBox="0 0 82 82"><g><g><path fill="#e30712" d="M60.282 40.126c.431.63.683 1.391.683 2.21 0 1.416-.754 2.66-1.881 3.35a3.926 3.926 0 0 1-1.336 5.345 3.9 3.9 0 0 1 .545 1.994 3.93 3.93 0 0 1-3.925 3.925H33.911a2.59 2.59 0 0 1-2.264 1.336h-8.016a2.592 2.592 0 0 1-2.589-2.589V34.32a2.592 2.592 0 0 1 2.589-2.588h8.017c.436 0 .846.11 1.207.3a16.554 16.554 0 0 0 1.726-1.59c.756-.805 1.617-1.369 2.56-1.674 2.403-.78 4.03-2.013 4.972-2.909 1.15-1.094 1.621-2.016 1.666-2.283a4.536 4.536 0 0 1 1.352-3.225 4.568 4.568 0 0 1 3.283-1.33 4.403 4.403 0 0 1 3.284 1.509c.933 1.05 1.378 2.478 1.22 3.917-.26 2.354-1.6 4.98-3.65 7.284h8.44a4.598 4.598 0 0 1 4.593 4.593c0 1.58-.801 2.976-2.019 3.803zM57.71 38.41a2.09 2.09 0 0 0 2.087-2.088 2.09 2.09 0 0 0-2.088-2.087H46.144a1.253 1.253 0 0 1-.788-2.227c2.807-2.272 4.797-5.348 5.07-7.837.08-.725-.145-1.465-.602-1.98-.266-.3-.731-.66-1.434-.666a2.1 2.1 0 0 0-1.496.604c-.393.39-.61.91-.61 1.466 0 1.052-.857 2.521-2.292 3.93-1.145 1.125-3.13 2.666-6.078 3.623-.536.174-1.043.512-1.507 1.006a19.014 19.014 0 0 1-2.18 1.984c.004.06.01.12.01.18v2.672a1.253 1.253 0 1 1-2.506 0V34.32a.083.083 0 0 0-.084-.083h-8.016a.083.083 0 0 0-.084.083v21.378c0 .046.038.084.084.084h8.016a.084.084 0 0 0 .084-.084v-13.36a1.253 1.253 0 1 1 2.505 0v12.108h20.132c.783 0 1.42-.637 1.42-1.42 0-.783-.637-1.42-1.42-1.42a1.253 1.253 0 0 1 0-2.505h1.336c.783 0 1.42-.637 1.42-1.42 0-.782-.637-1.42-1.42-1.42a1.253 1.253 0 0 1 0-2.504h1.336c.783 0 1.42-.637 1.42-1.42 0-.783-.637-1.42-1.42-1.42a1.253 1.253 0 0 1 0-2.505zm-28.81 13.27c0 .692-.568 1.26-1.26 1.26-.692 0-1.259-.568-1.259-1.26 0-.691.568-1.259 1.26-1.259.691 0 1.259.568 1.258 1.26zm52.02-4.987c.157.414.083.88-.194 1.226l-3.806 4.75.287 6.081c.02.442-.194.863-.564 1.106L71.554 63.2l-1.606 5.872c-.116.427-.45.76-.877.877l-5.872 1.606-3.342 5.088c-.243.37-.662.583-1.106.564l-6.08-.287-4.75 3.806a1.252 1.252 0 0 1-1.227.194L41 78.767l-5.694 2.152c-.414.157-.88.083-1.226-.194l-4.75-3.806-6.081.287a1.256 1.256 0 0 1-1.106-.564L18.8 71.554l-5.872-1.606a1.253 1.253 0 0 1-.877-.877l-1.606-5.872-5.088-3.342a1.252 1.252 0 0 1-.564-1.106l.287-6.08-3.806-4.75a1.252 1.252 0 0 1-.194-1.227L3.233 41 1.08 35.306a1.253 1.253 0 0 1 .194-1.226l3.806-4.75-.286-6.081c-.021-.442.193-.863.563-1.106l5.088-3.342 1.606-5.872c.116-.427.45-.76.877-.877l5.872-1.606 3.342-5.088a1.25 1.25 0 0 1 1.106-.564l6.08.287 4.75-3.806c.346-.277.812-.35 1.227-.194L41 3.233l5.694-2.152c.414-.157.88-.083 1.226.194l4.75 3.806 6.081-.287c.442-.02.863.194 1.106.564l3.342 5.087 5.872 1.606c.427.117.76.45.877.878l1.606 5.872 5.088 3.342c.37.243.585.663.564 1.105l-.287 6.081 3.806 4.75c.277.346.35.812.194 1.227L78.767 41zm-4.662-5.251a1.253 1.253 0 0 1 0-.886l2.066-5.469-3.655-4.562a1.252 1.252 0 0 1-.274-.842l.276-5.84-4.887-3.21a1.253 1.253 0 0 1-.52-.716L67.72 14.28l-5.638-1.542a1.253 1.253 0 0 1-.717-.52l-3.21-4.887-5.839.276a1.252 1.252 0 0 1-.842-.274L46.91 3.677l-5.468 2.067c-.285.107-.6.107-.886 0L35.09 3.677l-4.563 3.655c-.238.191-.538.288-.842.274l-5.84-.276-3.209 4.886c-.168.255-.422.44-.717.521L14.28 14.28l-1.543 5.64c-.08.294-.266.549-.52.716l-4.886 3.21.275 5.839c.015.305-.083.604-.274.842l-3.655 4.562 2.067 5.47c.108.284.108.6 0 .885L3.677 46.91l3.655 4.563c.191.238.289.537.274.842l-.275 5.84 4.886 3.209c.255.168.44.422.52.716l1.543 5.64 5.638 1.542c.295.08.55.265.717.52l3.21 4.886 5.84-.275c.303-.014.603.083.841.274l4.563 3.655 5.468-2.067a1.257 1.257 0 0 1 .886 0l5.468 2.067 4.563-3.655c.238-.191.537-.288.842-.274l5.84.275 3.209-4.886c.168-.255.422-.44.717-.52l5.638-1.543 1.543-5.639c.08-.294.266-.549.52-.716l4.887-3.21-.276-5.84a1.252 1.252 0 0 1 .274-.841l3.655-4.563zM64.46 21.14a1.25 1.25 0 0 1-1.77-.076 30.375 30.375 0 0 0-1.813-1.813 1.253 1.253 0 1 1 1.694-1.845 33.069 33.069 0 0 1 1.965 1.965c.468.51.434 1.302-.076 1.77zm-5.954-5.423a1.253 1.253 0 0 1-1.73.384c-5.565-3.546-12.268-5.123-18.873-4.438a29.54 29.54 0 0 0-17.788 8.476 29.388 29.388 0 0 0-8.61 19.644 29.379 29.379 0 0 0 6.874 20.153 1.253 1.253 0 0 1-1.917 1.613C11.328 55.446 8.68 47.68 9.003 39.68a31.888 31.888 0 0 1 9.341-21.314 32.054 32.054 0 0 1 19.302-9.196c7.165-.742 14.437.968 20.478 4.817.583.372.755 1.146.383 1.73zm14.265 28.58a32.051 32.051 0 0 1-9.196 19.302 31.887 31.887 0 0 1-22.625 9.367 31.86 31.86 0 0 1-20.557-7.486 1.252 1.252 0 1 1 1.613-1.917 29.376 29.376 0 0 0 20.154 6.874 29.39 29.39 0 0 0 19.643-8.61 29.541 29.541 0 0 0 8.476-17.789c.684-6.605-.892-13.307-4.438-18.873a1.252 1.252 0 1 1 2.113-1.346c3.849 6.04 5.56 13.313 4.818 20.478z"/><path fill="none" stroke="#fff" stroke-miterlimit="50" stroke-width=".5" d="M60.282 40.126c.431.63.683 1.391.683 2.21 0 1.416-.754 2.66-1.881 3.35a3.926 3.926 0 0 1-1.336 5.345 3.9 3.9 0 0 1 .545 1.994 3.93 3.93 0 0 1-3.925 3.925H33.911a2.59 2.59 0 0 1-2.264 1.336h-8.016a2.592 2.592 0 0 1-2.589-2.589V34.32a2.592 2.592 0 0 1 2.589-2.588h8.017c.436 0 .846.11 1.207.3a16.554 16.554 0 0 0 1.726-1.59c.756-.805 1.617-1.369 2.56-1.674 2.403-.78 4.03-2.013 4.972-2.909 1.15-1.094 1.621-2.016 1.666-2.283a4.536 4.536 0 0 1 1.352-3.225 4.568 4.568 0 0 1 3.283-1.33 4.403 4.403 0 0 1 3.284 1.509c.933 1.05 1.378 2.478 1.22 3.917-.26 2.354-1.6 4.98-3.65 7.284h8.44a4.598 4.598 0 0 1 4.593 4.593c0 1.58-.801 2.976-2.019 3.803zM57.71 38.41a2.09 2.09 0 0 0 2.087-2.088 2.09 2.09 0 0 0-2.088-2.087H46.144a1.253 1.253 0 0 1-.788-2.227c2.807-2.272 4.797-5.348 5.07-7.837.08-.725-.145-1.465-.602-1.98-.266-.3-.731-.66-1.434-.666a2.1 2.1 0 0 0-1.496.604c-.393.39-.61.91-.61 1.466 0 1.052-.857 2.521-2.292 3.93-1.145 1.125-3.13 2.666-6.078 3.623-.536.174-1.043.512-1.507 1.006a19.014 19.014 0 0 1-2.18 1.984c.004.06.01.12.01.18v2.672a1.253 1.253 0 1 1-2.506 0V34.32a.083.083 0 0 0-.084-.083h-8.016a.083.083 0 0 0-.084.083v21.378c0 .046.038.084.084.084h8.016a.084.084 0 0 0 .084-.084v-13.36a1.253 1.253 0 1 1 2.505 0v12.108h20.132c.783 0 1.42-.637 1.42-1.42 0-.783-.637-1.42-1.42-1.42a1.253 1.253 0 0 1 0-2.505h1.336c.783 0 1.42-.637 1.42-1.42 0-.782-.637-1.42-1.42-1.42a1.253 1.253 0 0 1 0-2.504h1.336c.783 0 1.42-.637 1.42-1.42 0-.783-.637-1.42-1.42-1.42a1.253 1.253 0 0 1 0-2.505zm-28.81 13.27c0 .692-.568 1.26-1.26 1.26-.692 0-1.259-.568-1.259-1.26 0-.691.568-1.259 1.26-1.259.691 0 1.259.568 1.258 1.26zm52.02-4.987c.157.414.083.88-.194 1.226l-3.806 4.75.287 6.081c.02.442-.194.863-.564 1.106L71.554 63.2l-1.606 5.872c-.116.427-.45.76-.877.877l-5.872 1.606-3.342 5.088c-.243.37-.662.583-1.106.564l-6.08-.287-4.75 3.806a1.252 1.252 0 0 1-1.227.194L41 78.767l-5.694 2.152c-.414.157-.88.083-1.226-.194l-4.75-3.806-6.081.287a1.256 1.256 0 0 1-1.106-.564L18.8 71.554l-5.872-1.606a1.253 1.253 0 0 1-.877-.877l-1.606-5.872-5.088-3.342a1.252 1.252 0 0 1-.564-1.106l.287-6.08-3.806-4.75a1.252 1.252 0 0 1-.194-1.227L3.233 41 1.08 35.306a1.253 1.253 0 0 1 .194-1.226l3.806-4.75-.286-6.081c-.021-.442.193-.863.563-1.106l5.088-3.342 1.606-5.872c.116-.427.45-.76.877-.877l5.872-1.606 3.342-5.088a1.25 1.25 0 0 1 1.106-.564l6.08.287 4.75-3.806c.346-.277.812-.35 1.227-.194L41 3.233l5.694-2.152c.414-.157.88-.083 1.226.194l4.75 3.806 6.081-.287c.442-.02.863.194 1.106.564l3.342 5.087 5.872 1.606c.427.117.76.45.877.878l1.606 5.872 5.088 3.342c.37.243.585.663.564 1.105l-.287 6.081 3.806 4.75c.277.346.35.812.194 1.227L78.767 41zm-4.662-5.251a1.253 1.253 0 0 1 0-.886l2.066-5.469-3.655-4.562a1.252 1.252 0 0 1-.274-.842l.276-5.84-4.887-3.21a1.253 1.253 0 0 1-.52-.716L67.72 14.28l-5.638-1.542a1.253 1.253 0 0 1-.717-.52l-3.21-4.887-5.839.276a1.252 1.252 0 0 1-.842-.274L46.91 3.677l-5.468 2.067c-.285.107-.6.107-.886 0L35.09 3.677l-4.563 3.655c-.238.191-.538.288-.842.274l-5.84-.276-3.209 4.886c-.168.255-.422.44-.717.521L14.28 14.28l-1.543 5.64c-.08.294-.266.549-.52.716l-4.886 3.21.275 5.839c.015.305-.083.604-.274.842l-3.655 4.562 2.067 5.47c.108.284.108.6 0 .885L3.677 46.91l3.655 4.563c.191.238.289.537.274.842l-.275 5.84 4.886 3.209c.255.168.44.422.52.716l1.543 5.64 5.638 1.542c.295.08.55.265.717.52l3.21 4.886 5.84-.275c.303-.014.603.083.841.274l4.563 3.655 5.468-2.067a1.257 1.257 0 0 1 .886 0l5.468 2.067 4.563-3.655c.238-.191.537-.288.842-.274l5.84.275 3.209-4.886c.168-.255.422-.44.717-.52l5.638-1.543 1.543-5.639c.08-.294.266-.549.52-.716l4.887-3.21-.276-5.84a1.252 1.252 0 0 1 .274-.841l3.655-4.563zM64.46 21.14a1.25 1.25 0 0 1-1.77-.076 30.375 30.375 0 0 0-1.813-1.813 1.253 1.253 0 1 1 1.694-1.845 33.069 33.069 0 0 1 1.965 1.965c.468.51.434 1.302-.076 1.77zm-5.954-5.423a1.253 1.253 0 0 1-1.73.384c-5.565-3.546-12.268-5.123-18.873-4.438a29.54 29.54 0 0 0-17.788 8.476 29.388 29.388 0 0 0-8.61 19.644 29.379 29.379 0 0 0 6.874 20.153 1.253 1.253 0 0 1-1.917 1.613C11.328 55.446 8.68 47.68 9.003 39.68a31.888 31.888 0 0 1 9.341-21.314 32.054 32.054 0 0 1 19.302-9.196c7.165-.742 14.437.968 20.478 4.817.583.372.755 1.146.383 1.73zm14.265 28.58a32.051 32.051 0 0 1-9.196 19.302 31.887 31.887 0 0 1-22.625 9.367 31.86 31.86 0 0 1-20.557-7.486 1.252 1.252 0 1 1 1.613-1.917 29.376 29.376 0 0 0 20.154 6.874 29.39 29.39 0 0 0 19.643-8.61 29.541 29.541 0 0 0 8.476-17.789c.684-6.605-.892-13.307-4.438-18.873a1.252 1.252 0 1 1 2.113-1.346c3.849 6.04 5.56 13.313 4.818 20.478z"/></g></g></svg>