<svg xmlns="http://www.w3.org/2000/svg" width="82" height="82" viewBox="0 0 82 82"><g><g><path fill="#e30712" d="M58.187 25.372a1.563 1.563 0 1 1-3.126-.001 1.563 1.563 0 0 1 3.126.001zm-31.25 31.25a1.563 1.563 0 1 1-3.126-.001 1.563 1.563 0 0 1 3.127.001zM81 40.997a39.32 39.32 0 0 1-.542 6.51 1.562 1.562 0 0 1-1.54 1.303h-6.045a32.43 32.43 0 0 1-3.82 9.193l4.544 4.544c.54.54.61 1.39.167 2.012a39.228 39.228 0 0 1-9.203 9.203 1.563 1.563 0 0 1-2.011-.167l-4.544-4.544a32.417 32.417 0 0 1-9.194 3.82v6.043c0 .763-.55 1.414-1.303 1.541a39.327 39.327 0 0 1-13.018 0 1.562 1.562 0 0 1-1.304-1.54V72.87a32.424 32.424 0 0 1-9.193-3.82l-4.544 4.544c-.54.54-1.39.61-2.012.168a39.23 39.23 0 0 1-9.203-9.203 1.563 1.563 0 0 1 .168-2.012l4.544-4.543a32.418 32.418 0 0 1-3.82-9.194H3.083c-.763 0-1.414-.55-1.541-1.303a39.324 39.324 0 0 1 0-13.02 1.562 1.562 0 0 1 1.54-1.302h6.045a32.43 32.43 0 0 1 3.82-9.194l-4.544-4.543c-.54-.54-.61-1.39-.168-2.012a39.231 39.231 0 0 1 9.203-9.203 1.562 1.562 0 0 1 2.012.167l4.544 4.544a32.419 32.419 0 0 1 9.193-3.82V3.08c0-.762.551-1.414 1.304-1.54 4.273-.72 8.745-.72 13.018 0a1.562 1.562 0 0 1 1.303 1.54v6.045a32.428 32.428 0 0 1 9.194 3.82L62.55 8.4c.54-.54 1.39-.61 2.011-.167a39.23 39.23 0 0 1 9.203 9.203 1.563 1.563 0 0 1-.167 2.012l-4.544 4.543a32.427 32.427 0 0 1 3.82 9.194h6.044c.763 0 1.414.55 1.541 1.303.36 2.137.542 4.327.542 6.51zm-3.43 4.688a36.306 36.306 0 0 0 0-9.375h-5.948a1.562 1.562 0 0 1-1.531-1.251 29.378 29.378 0 0 0-4.33-10.423 1.563 1.563 0 0 1 .197-1.968l4.478-4.478a36.08 36.08 0 0 0-6.628-6.628L59.33 16.04a1.563 1.563 0 0 1-1.968.197 29.379 29.379 0 0 0-10.423-4.33 1.562 1.562 0 0 1-1.251-1.531v-5.95a36.404 36.404 0 0 0-9.375 0v5.95c0 .742-.523 1.383-1.251 1.53a29.36 29.36 0 0 0-10.423 4.331 1.563 1.563 0 0 1-1.969-.197l-4.478-4.478a36.08 36.08 0 0 0-6.628 6.628l4.478 4.478c.526.525.608 1.349.198 1.968a29.38 29.38 0 0 0-4.33 10.423 1.562 1.562 0 0 1-1.532 1.251H4.43a36.298 36.298 0 0 0 0 9.375h5.949c.743 0 1.383.523 1.531 1.251a29.363 29.363 0 0 0 4.33 10.423c.411.62.33 1.443-.197 1.969l-4.478 4.477a36.08 36.08 0 0 0 6.628 6.628l4.478-4.478a1.562 1.562 0 0 1 1.968-.197 29.379 29.379 0 0 0 10.423 4.33c.728.148 1.251.789 1.251 1.531v5.95c3.097.403 6.28.403 9.375 0v-5.95c0-.742.523-1.383 1.251-1.53a29.36 29.36 0 0 0 10.423-4.331 1.562 1.562 0 0 1 1.969.197l4.478 4.478a36.08 36.08 0 0 0 6.627-6.628l-4.478-4.478a1.563 1.563 0 0 1-.197-1.968 29.38 29.38 0 0 0 4.33-10.423 1.562 1.562 0 0 1 1.532-1.251zM52.865 22.558a1.562 1.562 0 0 1-2.122.618A20.3 20.3 0 0 0 41 20.685c-11.2 0-20.313 9.112-20.313 20.312 0 3.403.862 6.772 2.492 9.742a1.563 1.563 0 1 1-2.74 1.503 23.433 23.433 0 0 1-2.877-11.245c0-12.924 10.514-23.438 23.438-23.438 3.927 0 7.816.995 11.245 2.877a1.563 1.563 0 0 1 .618 2.122zm11.573 18.44c0 12.923-10.514 23.437-23.437 23.437-3.928 0-7.817-.995-11.246-2.878a1.562 1.562 0 1 1 1.504-2.739A20.3 20.3 0 0 0 41 61.309c11.2 0 20.312-9.112 20.312-20.312 0-3.403-.861-6.772-2.491-9.742a1.562 1.562 0 1 1 2.74-1.503 23.431 23.431 0 0 1 2.876 11.245zm-6.25 0c0 9.476-7.71 17.187-17.187 17.187s-17.188-7.71-17.188-17.188c0-9.477 7.71-17.187 17.188-17.187 9.477 0 17.187 7.71 17.187 17.187zm-3.125 0c0-7.755-6.308-14.063-14.062-14.063s-14.063 6.308-14.063 14.062S33.246 55.06 41 55.06c7.754 0 14.062-6.309 14.062-14.063z"/><path fill="none" stroke="#fff" stroke-miterlimit="50" d="M58.187 25.372a1.563 1.563 0 1 1-3.126-.001 1.563 1.563 0 0 1 3.126.001zm-31.25 31.25a1.563 1.563 0 1 1-3.126-.001 1.563 1.563 0 0 1 3.127.001zM81 40.997a39.32 39.32 0 0 1-.542 6.51 1.562 1.562 0 0 1-1.54 1.303h-6.045a32.43 32.43 0 0 1-3.82 9.193l4.544 4.544c.54.54.61 1.39.167 2.012a39.228 39.228 0 0 1-9.203 9.203 1.563 1.563 0 0 1-2.011-.167l-4.544-4.544a32.417 32.417 0 0 1-9.194 3.82v6.043c0 .763-.55 1.414-1.303 1.541a39.327 39.327 0 0 1-13.018 0 1.562 1.562 0 0 1-1.304-1.54V72.87a32.424 32.424 0 0 1-9.193-3.82l-4.544 4.544c-.54.54-1.39.61-2.012.168a39.23 39.23 0 0 1-9.203-9.203 1.563 1.563 0 0 1 .168-2.012l4.544-4.543a32.418 32.418 0 0 1-3.82-9.194H3.083c-.763 0-1.414-.55-1.541-1.303a39.324 39.324 0 0 1 0-13.02 1.562 1.562 0 0 1 1.54-1.302h6.045a32.43 32.43 0 0 1 3.82-9.194l-4.544-4.543c-.54-.54-.61-1.39-.168-2.012a39.231 39.231 0 0 1 9.203-9.203 1.562 1.562 0 0 1 2.012.167l4.544 4.544a32.419 32.419 0 0 1 9.193-3.82V3.08c0-.762.551-1.414 1.304-1.54 4.273-.72 8.745-.72 13.018 0a1.562 1.562 0 0 1 1.303 1.54v6.045a32.428 32.428 0 0 1 9.194 3.82L62.55 8.4c.54-.54 1.39-.61 2.011-.167a39.23 39.23 0 0 1 9.203 9.203 1.563 1.563 0 0 1-.167 2.012l-4.544 4.543a32.427 32.427 0 0 1 3.82 9.194h6.044c.763 0 1.414.55 1.541 1.303.36 2.137.542 4.327.542 6.51zm-3.43 4.688a36.306 36.306 0 0 0 0-9.375h-5.948a1.562 1.562 0 0 1-1.531-1.251 29.378 29.378 0 0 0-4.33-10.423 1.563 1.563 0 0 1 .197-1.968l4.478-4.478a36.08 36.08 0 0 0-6.628-6.628L59.33 16.04a1.563 1.563 0 0 1-1.968.197 29.379 29.379 0 0 0-10.423-4.33 1.562 1.562 0 0 1-1.251-1.531v-5.95a36.404 36.404 0 0 0-9.375 0v5.95c0 .742-.523 1.383-1.251 1.53a29.36 29.36 0 0 0-10.423 4.331 1.563 1.563 0 0 1-1.969-.197l-4.478-4.478a36.08 36.08 0 0 0-6.628 6.628l4.478 4.478c.526.525.608 1.349.198 1.968a29.38 29.38 0 0 0-4.33 10.423 1.562 1.562 0 0 1-1.532 1.251H4.43a36.298 36.298 0 0 0 0 9.375h5.949c.743 0 1.383.523 1.531 1.251a29.363 29.363 0 0 0 4.33 10.423c.411.62.33 1.443-.197 1.969l-4.478 4.477a36.08 36.08 0 0 0 6.628 6.628l4.478-4.478a1.562 1.562 0 0 1 1.968-.197 29.379 29.379 0 0 0 10.423 4.33c.728.148 1.251.789 1.251 1.531v5.95c3.097.403 6.28.403 9.375 0v-5.95c0-.742.523-1.383 1.251-1.53a29.36 29.36 0 0 0 10.423-4.331 1.562 1.562 0 0 1 1.969.197l4.478 4.478a36.08 36.08 0 0 0 6.627-6.628l-4.478-4.478a1.563 1.563 0 0 1-.197-1.968 29.38 29.38 0 0 0 4.33-10.423 1.562 1.562 0 0 1 1.532-1.251zM52.865 22.558a1.562 1.562 0 0 1-2.122.618A20.3 20.3 0 0 0 41 20.685c-11.2 0-20.313 9.112-20.313 20.312 0 3.403.862 6.772 2.492 9.742a1.563 1.563 0 1 1-2.74 1.503 23.433 23.433 0 0 1-2.877-11.245c0-12.924 10.514-23.438 23.438-23.438 3.927 0 7.816.995 11.245 2.877a1.563 1.563 0 0 1 .618 2.122zm11.573 18.44c0 12.923-10.514 23.437-23.437 23.437-3.928 0-7.817-.995-11.246-2.878a1.562 1.562 0 1 1 1.504-2.739A20.3 20.3 0 0 0 41 61.309c11.2 0 20.312-9.112 20.312-20.312 0-3.403-.861-6.772-2.491-9.742a1.562 1.562 0 1 1 2.74-1.503 23.431 23.431 0 0 1 2.876 11.245zm-6.25 0c0 9.476-7.71 17.187-17.187 17.187s-17.188-7.71-17.188-17.188c0-9.477 7.71-17.187 17.188-17.187 9.477 0 17.187 7.71 17.187 17.187zm-3.125 0c0-7.755-6.308-14.063-14.062-14.063s-14.063 6.308-14.063 14.062S33.246 55.06 41 55.06c7.754 0 14.062-6.309 14.062-14.063z"/></g></g></svg>