<svg xmlns="http://www.w3.org/2000/svg" width="82" height="71" viewBox="0 0 82 71"><g><g><path fill="#e30712" d="M71.704 21.345a1.564 1.564 0 0 1-2.21-2.21 1.56 1.56 0 0 1 2.21.001c.61.61.61 1.598 0 2.21zM12.506 23.2c-.61.61-1.6.61-2.21 0a1.56 1.56 0 0 1 0-2.21 1.56 1.56 0 0 1 2.21 0c.61.61.61 1.6 0 2.21zm68.037-4.063c.61.61.61 1.6 0 2.21L69.606 32.282l-7.652 11.637.758.758a5.477 5.477 0 0 1 0 7.734 5.457 5.457 0 0 1-3.869 1.6l-.059-.002a5.45 5.45 0 0 1-1.597 3.926 5.424 5.424 0 0 1-3.927 1.601 5.453 5.453 0 0 1-5.465 5.523l-.06-.002a5.465 5.465 0 0 1-9.332 3.926l-2.76-2.762-.553.553a5.477 5.477 0 0 1-7.734 0 5.452 5.452 0 0 1-1.599-3.923l-.059.001a5.432 5.432 0 0 1-3.866-1.601 5.456 5.456 0 0 1-1.598-3.928l-.06.001a5.455 5.455 0 0 1-5.465-5.523 5.424 5.424 0 0 1-3.927-1.601 5.463 5.463 0 0 1 .002-7.733l2.538-2.538-1.217-6.084L1.458 23.2c-.61-.61-.61-1.6 0-2.21L19.135 3.31c.293-.293.69-.458 1.104-.458.017.004.606-.042 1.106.458L31.96 13.925l10.31 1.473 7.557-3.113L60.655 1.458c.61-.61 1.6-.61 2.21 0zm-66.998 11.73l15.469-15.467-4.354-4.354-7.735 7.735a1.563 1.563 0 0 1-2.21-2.21l7.735-7.735-2.21-2.21L4.772 22.094zm6.077 13.811h.001a2.342 2.342 0 0 0 0-3.314 2.341 2.341 0 0 0-3.314 0l-3.294 3.292-.004.005-.01.01-.007.007a2.34 2.34 0 0 0 0 3.313 2.34 2.34 0 0 0 3.313.001zm2.21 8.838l3.315-3.314a2.344 2.344 0 0 0-3.314-3.315L18.518 50.2h-.001l-.001.002a2.348 2.348 0 0 0 0 3.315 2.348 2.348 0 0 0 3.316 0zm8.84 2.21c.917-.917.913-2.4 0-3.314a2.341 2.341 0 0 0-3.315 0l-3.315 3.314a2.348 2.348 0 0 0 0 3.316 2.342 2.342 0 0 0 3.314 0zm5.523 5.525a2.342 2.342 0 0 0 0-3.317 2.346 2.346 0 0 0-3.313.002l-3.316 3.315a2.346 2.346 0 0 0 0 3.314 2.348 2.348 0 0 0 3.315 0zm24.308-14.364l-1.653-1.652-.008-.009-10.317-10.317c-3.41 1.632-7.725 1.114-10.672-1.833a1.566 1.566 0 0 0-2.212 0l-3.864 3.867a5.464 5.464 0 0 1-7.735 0 5.474 5.474 0 0 1 0-7.733l10.497-10.497c.146-.145.319-.26.51-.34l1.53-.63-4.803-.687L15.24 33.588l.858 4.288a5.47 5.47 0 0 1 5.734 1.277 5.424 5.424 0 0 1 1.6 3.923 5.428 5.428 0 0 1 3.923 1.6 5.427 5.427 0 0 1 1.6 3.924 5.428 5.428 0 0 1 3.925 1.601 5.427 5.427 0 0 1 1.6 3.926 5.464 5.464 0 0 1 3.925 9.331l-.553.553 2.761 2.763a2.341 2.341 0 0 0 3.315 0c.914-.914.914-2.4 0-3.315l-1.657-1.657a1.562 1.562 0 1 1 2.21-2.21l1.657 1.658a2.348 2.348 0 0 0 3.316 0 2.35 2.35 0 0 0 0-3.316l-1.658-1.655a1.563 1.563 0 0 1 2.21-2.21l1.657 1.655.001.002a2.34 2.34 0 0 0 3.313 0c.914-.915.914-2.401 0-3.315l-1.658-1.658a1.563 1.563 0 0 1 2.21-2.21l1.658 1.66c0-.001 0 0 0 0 .914.912 2.4.912 3.316-.002a2.348 2.348 0 0 0 0-3.315zm5.882-15.392L50.343 15.452l-13.815 5.69L26.252 31.42a2.346 2.346 0 0 0 0 3.314 2.34 2.34 0 0 0 3.315 0l3.865-3.867a4.695 4.695 0 0 1 6.63 0 6.247 6.247 0 0 0 7.885.784c.774-.515 1.088-.95 2.06-1.889a1.563 1.563 0 0 1 2.21 2.21l-1.105 1.104 8.587 8.587zm10.843-11.253L61.76 4.77l-2.21 2.21 7.735 7.734a1.563 1.563 0 0 1-2.21 2.21l-7.734-7.734-4.42 4.42L68.39 29.079z"/><path fill="none" stroke="#fff" stroke-miterlimit="50" d="M71.704 21.345a1.564 1.564 0 0 1-2.21-2.21 1.56 1.56 0 0 1 2.21.001c.61.61.61 1.598 0 2.21zM12.506 23.2c-.61.61-1.6.61-2.21 0a1.56 1.56 0 0 1 0-2.21 1.56 1.56 0 0 1 2.21 0c.61.61.61 1.6 0 2.21zm68.037-4.063c.61.61.61 1.6 0 2.21L69.606 32.282l-7.652 11.637.758.758a5.477 5.477 0 0 1 0 7.734 5.457 5.457 0 0 1-3.869 1.6l-.059-.002a5.45 5.45 0 0 1-1.597 3.926 5.424 5.424 0 0 1-3.927 1.601 5.453 5.453 0 0 1-5.465 5.523l-.06-.002a5.465 5.465 0 0 1-9.332 3.926l-2.76-2.762-.553.553a5.477 5.477 0 0 1-7.734 0 5.452 5.452 0 0 1-1.599-3.923l-.059.001a5.432 5.432 0 0 1-3.866-1.601 5.456 5.456 0 0 1-1.598-3.928l-.06.001a5.455 5.455 0 0 1-5.465-5.523 5.424 5.424 0 0 1-3.927-1.601 5.463 5.463 0 0 1 .002-7.733l2.538-2.538-1.217-6.084L1.458 23.2c-.61-.61-.61-1.6 0-2.21L19.135 3.31c.293-.293.69-.458 1.104-.458.017.004.606-.042 1.106.458L31.96 13.925l10.31 1.473 7.557-3.113L60.655 1.458c.61-.61 1.6-.61 2.21 0zm-66.998 11.73l15.469-15.467-4.354-4.354-7.735 7.735a1.563 1.563 0 0 1-2.21-2.21l7.735-7.735-2.21-2.21L4.772 22.094zm6.077 13.811h.001a2.342 2.342 0 0 0 0-3.314 2.341 2.341 0 0 0-3.314 0l-3.294 3.292-.004.005-.01.01-.007.007a2.34 2.34 0 0 0 0 3.313 2.34 2.34 0 0 0 3.313.001zm2.21 8.838l3.315-3.314a2.344 2.344 0 0 0-3.314-3.315s0 0 0 0 0 0 0 0L18.518 50.2h-.001l-.001.002a2.348 2.348 0 0 0 0 3.315 2.348 2.348 0 0 0 3.316 0zm8.84 2.21c.917-.917.913-2.4 0-3.314a2.341 2.341 0 0 0-3.315 0l-3.315 3.314a2.348 2.348 0 0 0 0 3.316 2.342 2.342 0 0 0 3.314 0zm5.523 5.525a2.342 2.342 0 0 0 0-3.317 2.346 2.346 0 0 0-3.313.002l-3.316 3.315a2.346 2.346 0 0 0 0 3.314 2.348 2.348 0 0 0 3.315 0zm24.308-14.364l-1.653-1.652-.008-.009-10.317-10.317c-3.41 1.632-7.725 1.114-10.672-1.833a1.566 1.566 0 0 0-2.212 0l-3.864 3.867a5.464 5.464 0 0 1-7.735 0 5.474 5.474 0 0 1 0-7.733l10.497-10.497c.146-.145.319-.26.51-.34l1.53-.63-4.803-.687L15.24 33.588l.858 4.288a5.47 5.47 0 0 1 5.734 1.277 5.424 5.424 0 0 1 1.6 3.923 5.428 5.428 0 0 1 3.923 1.6 5.427 5.427 0 0 1 1.6 3.924 5.428 5.428 0 0 1 3.925 1.601 5.427 5.427 0 0 1 1.6 3.926 5.464 5.464 0 0 1 3.925 9.331l-.553.553 2.761 2.763a2.341 2.341 0 0 0 3.315 0c.914-.914.914-2.4 0-3.315l-1.657-1.657a1.562 1.562 0 1 1 2.21-2.21l1.657 1.658a2.348 2.348 0 0 0 3.316 0 2.35 2.35 0 0 0 0-3.316l-1.658-1.655a1.563 1.563 0 0 1 2.21-2.21l1.657 1.655.001.002a2.34 2.34 0 0 0 3.313 0c.914-.915.914-2.401 0-3.315l-1.658-1.658a1.563 1.563 0 0 1 2.21-2.21l1.658 1.66c0-.001 0 0 0 0 .914.912 2.4.912 3.316-.002a2.348 2.348 0 0 0 0-3.315zm5.882-15.392L50.343 15.452l-13.815 5.69L26.252 31.42a2.346 2.346 0 0 0 0 3.314 2.34 2.34 0 0 0 3.315 0l3.865-3.867a4.695 4.695 0 0 1 6.63 0 6.247 6.247 0 0 0 7.885.784c.774-.515 1.088-.95 2.06-1.889a1.563 1.563 0 0 1 2.21 2.21l-1.105 1.104 8.587 8.587zm10.843-11.253L61.76 4.77l-2.21 2.21 7.735 7.734a1.563 1.563 0 0 1-2.21 2.21l-7.734-7.734-4.42 4.42L68.39 29.079z"/></g></g></svg>