<svg xmlns="http://www.w3.org/2000/svg" width="78" height="80" viewBox="0 0 78 80"><g><g><g><g><path fill="#e30712" d="M72.748 3.125a4.693 4.693 0 0 1 4.687 4.688V24.23c0 11.28-9.177 20.457-20.457 20.457H53.98a22.851 22.851 0 0 1-6.549 4.009l.003.054v9.375h5.938a4.693 4.693 0 0 1 4.687 4.688v12.5A4.693 4.693 0 0 1 53.372 80h-28.75a4.693 4.693 0 0 1-4.687-4.688v-12.5a4.693 4.693 0 0 1 4.688-4.687h5.937V48.75l.003-.054a22.851 22.851 0 0 1-6.549-4.008h-2.997C9.737 44.688.56 35.51.56 24.23V7.812a4.693 4.693 0 0 1 4.688-4.687h10.937V1.562c0-.862.7-1.562 1.563-1.562h42.5c.862 0 1.562.7 1.562 1.563v1.562zM61.81 27.5c0 2.508-.408 4.923-1.16 7.182 4.34-1.537 7.41-5.714 7.41-10.452V12.5h-6.25zm-42.5 0c0 10.856 8.832 19.688 19.688 19.688 10.855 0 19.687-8.832 19.687-19.688V9.375H48.067a1.563 1.563 0 0 1 0-3.125h10.618V3.125H19.31zm-3.125 0v-15h-6.25v11.73c0 4.738 3.07 8.915 7.41 10.452a22.717 22.717 0 0 1-1.16-7.182zm-12.5-3.27c0 9.557 7.775 17.332 17.332 17.332h.03a22.885 22.885 0 0 1-2.151-3.285 14.219 14.219 0 0 1-8.593-4.726 14.19 14.19 0 0 1-3.493-9.32V10.936c0-.862.7-1.562 1.563-1.562h7.812V6.25H5.248c-.862 0-1.563.7-1.563 1.563zm51.25 38.582c0-.861-.7-1.562-1.563-1.562h-28.75c-.861 0-1.562.7-1.562 1.563v12.5c0 .861.7 1.562 1.563 1.562h28.75c.861 0 1.562-.7 1.562-1.563zM44.31 49.688a22.794 22.794 0 0 1-5.313.626c-1.828 0-3.607-.218-5.312-.626v8.438H44.31zm30-41.874c0-.862-.7-1.563-1.563-1.563H61.81v3.125h7.813c.862 0 1.562.7 1.562 1.563V24.23a14.19 14.19 0 0 1-3.493 9.321 14.217 14.217 0 0 1-8.593 4.726 22.883 22.883 0 0 1-2.15 3.285h.029c9.557 0 17.332-7.775 17.332-17.332z"/><path fill="none" stroke="#fff" stroke-miterlimit="50" d="M72.748 3.125a4.693 4.693 0 0 1 4.687 4.688V24.23c0 11.28-9.177 20.457-20.457 20.457H53.98a22.851 22.851 0 0 1-6.549 4.009l.003.054v9.375h5.938a4.693 4.693 0 0 1 4.687 4.688v12.5A4.693 4.693 0 0 1 53.372 80h-28.75a4.693 4.693 0 0 1-4.687-4.688v-12.5a4.693 4.693 0 0 1 4.688-4.687h5.937V48.75l.003-.054a22.851 22.851 0 0 1-6.549-4.008h-2.997C9.737 44.688.56 35.51.56 24.23V7.812a4.693 4.693 0 0 1 4.688-4.687h10.937V1.562c0-.862.7-1.562 1.563-1.562h42.5c.862 0 1.562.7 1.562 1.563v1.562zM61.81 27.5c0 2.508-.408 4.923-1.16 7.182 4.34-1.537 7.41-5.714 7.41-10.452V12.5h-6.25zm-42.5 0c0 10.856 8.832 19.688 19.688 19.688 10.855 0 19.687-8.832 19.687-19.688V9.375H48.067a1.563 1.563 0 0 1 0-3.125h10.618V3.125H19.31zm-3.125 0v-15h-6.25v11.73c0 4.738 3.07 8.915 7.41 10.452a22.717 22.717 0 0 1-1.16-7.182zm-12.5-3.27c0 9.557 7.775 17.332 17.332 17.332h.03a22.885 22.885 0 0 1-2.151-3.285 14.219 14.219 0 0 1-8.593-4.726 14.19 14.19 0 0 1-3.493-9.32V10.936c0-.862.7-1.562 1.563-1.562h7.812V6.25H5.248c-.862 0-1.563.7-1.563 1.563zm51.25 38.582c0-.861-.7-1.562-1.563-1.562h-28.75c-.861 0-1.562.7-1.562 1.563v12.5c0 .861.7 1.562 1.563 1.562h28.75c.861 0 1.562-.7 1.562-1.563zM44.31 49.688a22.794 22.794 0 0 1-5.313.626c-1.828 0-3.607-.218-5.312-.626v8.438H44.31zm30-41.874c0-.862-.7-1.563-1.563-1.563H61.81v3.125h7.813c.862 0 1.562.7 1.562 1.563V24.23a14.19 14.19 0 0 1-3.493 9.321 14.217 14.217 0 0 1-8.593 4.726 22.883 22.883 0 0 1-2.15 3.285h.029c9.557 0 17.332-7.775 17.332-17.332z"/></g><g><path fill="#e30712" d="M41.822 9.375c.411 0 .815-.167 1.105-.458.29-.29.458-.694.458-1.105 0-.41-.167-.814-.458-1.104a1.574 1.574 0 0 0-1.105-.458 1.568 1.568 0 0 0-1.563 1.563c.001.41.167.814.459 1.104.29.29.692.458 1.104.458z"/><path fill="none" stroke="#fff" stroke-miterlimit="50" d="M41.822 9.375c.411 0 .815-.167 1.105-.458.29-.29.458-.694.458-1.105 0-.41-.167-.814-.458-1.104a1.574 1.574 0 0 0-1.105-.458 1.568 1.568 0 0 0-1.563 1.563c.001.41.167.814.459 1.104.29.29.692.458 1.104.458z"/></g><g><path fill="#e30712" d="M43.427 70.63h-8.854a1.563 1.563 0 0 0 0 3.125h8.854a1.563 1.563 0 0 0 0-3.125z"/><path fill="none" stroke="#fff" stroke-miterlimit="50" d="M43.427 70.63v0h-8.854a1.563 1.563 0 0 0 0 3.125h8.854a1.563 1.563 0 0 0 0-3.125z"/></g><g><path fill="#e30712" d="M31.262 64.38c-.41 0-.814.167-1.104.458-.29.29-.458.694-.458 1.104 0 .411.167.815.458 1.105.29.29.694.458 1.104.458.411 0 .815-.167 1.105-.458.29-.29.458-.694.458-1.105 0-.41-.167-.814-.458-1.104a1.573 1.573 0 0 0-1.104-.458z"/><path fill="none" stroke="#fff" stroke-miterlimit="50" d="M31.262 64.38c-.41 0-.814.167-1.104.458-.29.29-.458.694-.458 1.104 0 .411.167.815.458 1.105.29.29.694.458 1.104.458.411 0 .815-.167 1.105-.458.29-.29.458-.694.458-1.105 0-.41-.167-.814-.458-1.104a1.573 1.573 0 0 0-1.104-.458z"/></g><g><path fill="#e30712" d="M35.95 65.942c0 .863.7 1.563 1.563 1.563h9.218a1.563 1.563 0 0 0 0-3.125h-9.219c-.862 0-1.562.7-1.562 1.563z"/><path fill="none" stroke="#fff" stroke-miterlimit="50" d="M35.95 65.942c0 .863.7 1.563 1.563 1.563h9.218a1.563 1.563 0 0 0 0-3.125h-9.219c-.862 0-1.562.7-1.562 1.563z"/></g><g><path fill="#e30712" d="M27.852 22.989a1.563 1.563 0 0 1 .865-2.665l6.134-.893 2.742-5.56a1.562 1.562 0 0 1 1.4-.871h.001c.595 0 1.138.338 1.401.87l2.745 5.558 6.134.89a1.563 1.563 0 0 1 .867 2.665l-4.437 4.328 1.05 6.109a1.563 1.563 0 0 1-2.268 1.647L39 32.184l-5.486 2.886a1.56 1.56 0 0 1-1.645-.118 1.562 1.562 0 0 1-.622-1.528l1.046-6.11zm4.449-.03l2.76 2.69c.368.359.537.876.45 1.383l-.65 3.799 3.41-1.795c.455-.239 1-.24 1.455 0l3.411 1.792-.652-3.798a1.562 1.562 0 0 1 .449-1.383l2.759-2.69-3.814-.554a1.562 1.562 0 0 1-1.177-.855l-1.707-3.455-1.704 3.456c-.228.461-.667.781-1.176.855z"/><path fill="none" stroke="#fff" stroke-miterlimit="50" d="M27.852 22.989a1.563 1.563 0 0 1 .865-2.665l6.134-.893 2.742-5.56a1.562 1.562 0 0 1 1.4-.871h.001c.595 0 1.138.338 1.401.87l2.745 5.558 6.134.89a1.563 1.563 0 0 1 .867 2.665l-4.437 4.328 1.05 6.109a1.563 1.563 0 0 1-2.268 1.647L39 32.184l-5.486 2.886a1.56 1.56 0 0 1-1.645-.118 1.562 1.562 0 0 1-.622-1.528l1.046-6.11zm4.449-.03l2.76 2.69c.368.359.537.876.45 1.383l-.65 3.799 3.41-1.795c.455-.239 1-.24 1.455 0l3.411 1.792-.652-3.798a1.562 1.562 0 0 1 .449-1.383l2.759-2.69-3.814-.554a1.562 1.562 0 0 1-1.177-.855l-1.707-3.455-1.704 3.456c-.228.461-.667.781-1.176.855z"/></g></g></g></g></svg>