<svg width="65" height="21" viewBox="0 0 65 21" fill="none" xmlns="http://www.w3.org/2000/svg">
<path d="M63.6193 9.58118L55.3752 1.37995C54.866 0.873349 54.0493 0.873349 53.54 1.37995C53.0308 1.88656 53.0308 2.69903 53.54 3.20563L59.5741 9.2084H2.29714C1.57651 9.2084 1 9.78191 1 10.4988C1 11.2157 1.57651 11.7892 2.29714 11.7892H59.5741L53.54 17.792C53.0308 18.2986 53.0308 19.1111 53.54 19.6177C53.7898 19.8662 54.1261 20 54.4528 20C54.7795 20 55.1158 19.8757 55.3656 19.6177L63.6097 11.4164C64.1285 10.9003 64.1285 10.0782 63.6193 9.58118Z" fill="#E30712" stroke="white"/>
</svg>
