<svg xmlns="http://www.w3.org/2000/svg" width="23" height="14" viewBox="0 0 23 14"><g><g><path fill="#f2f2f3" d="M12.434 13.33s.395-.046.598-.27c.186-.206.18-.595.18-.595s-.025-1.813.791-2.08c.805-.264 1.838 1.753 2.934 2.528.829.587 1.457.458 1.457.458l2.93-.042s1.532-.097.806-1.34c-.06-.101-.424-.919-2.178-2.598-1.838-1.758-1.59-1.473.621-4.514 1.348-1.852 1.886-2.983 1.718-3.466-.16-.463-1.151-.34-1.151-.34l-3.298.021s-.245-.034-.426.078c-.177.11-.292.365-.292.365s-.521 1.432-1.218 2.651c-1.468 2.571-2.055 2.707-2.296 2.548-.558-.373-.42-1.496-.42-2.293 0-2.492.368-3.531-.712-3.8-.359-.09-.623-.148-1.54-.158C9.76.47 8.765.487 8.2.772c-.375.189-.665.611-.488.636.218.03.711.137.973.504.338.475.326 1.539.326 1.539s.194 2.933-.454 3.297c-.444.25-1.053-.26-2.363-2.593-.67-1.194-1.177-2.515-1.177-2.515s-.098-.247-.273-.38c-.211-.16-.506-.21-.506-.21l-3.134.021s-.47.014-.644.225C.308 1.483.45 1.87.45 1.87s2.453 5.92 5.232 8.903c2.548 2.735 5.44 2.555 5.44 2.555z"/></g></g></svg>